<svg width="24" height="24" viewBox="0 0 24 24" fill="none" xmlns="http://www.w3.org/2000/svg">
<path opacity="0.4" d="M12 22C17.5228 22 22 17.5228 22 12C22 6.47715 17.5228 2 12 2C6.47715 2 2 6.47715 2 12C2 17.5228 6.47715 22 12 22Z" fill="#01684B"/>
<path d="M8.00043 14.7495C7.81043 14.7495 7.62043 14.6795 7.47043 14.5295L5.47043 12.5295C5.18043 12.2395 5.18043 11.7595 5.47043 11.4695L7.47043 9.46945C7.76043 9.17945 8.24043 9.17945 8.53043 9.46945C8.82043 9.75945 8.82043 10.2395 8.53043 10.5295L7.06043 11.9995L8.53043 13.4695C8.82043 13.7595 8.82043 14.2395 8.53043 14.5295C8.38043 14.6795 8.19043 14.7495 8.00043 14.7495Z" fill="#01684B"/>
<path d="M16.0004 14.7495C15.8104 14.7495 15.6204 14.6795 15.4704 14.5295C15.1804 14.2395 15.1804 13.7595 15.4704 13.4695L16.9404 11.9995L15.4704 10.5295C15.1804 10.2395 15.1804 9.75945 15.4704 9.46945C15.7604 9.17945 16.2404 9.17945 16.5304 9.46945L18.5304 11.4695C18.8204 11.7595 18.8204 12.2395 18.5304 12.5295L16.5304 14.5295C16.3804 14.6795 16.1904 14.7495 16.0004 14.7495Z" fill="#01684B"/>
<path d="M11.0001 15.0796C10.9001 15.0796 10.8001 15.0596 10.7101 15.0196C10.3301 14.8596 10.1501 14.4196 10.3201 14.0296L12.3201 9.35955C12.4801 8.97955 12.9201 8.79954 13.3001 8.96954C13.6801 9.12954 13.8601 9.56959 13.6901 9.95959L11.6901 14.6296C11.5701 14.9096 11.2901 15.0796 11.0001 15.0796Z" fill="#01684B"/>
</svg>
