<svg width="24" height="24" viewBox="0 0 24 24" fill="none" xmlns="http://www.w3.org/2000/svg">
<path opacity="0.4" d="M8.5 18.9697H8C4 18.9697 2 17.9697 2 12.9697V7.96973C2 3.96973 4 1.96973 8 1.96973H16C20 1.96973 22 3.96973 22 7.96973V12.9697C22 16.9697 20 18.9697 16 18.9697H15.5C15.19 18.9697 14.89 19.1198 14.7 19.3698L13.2 21.3698C12.54 22.2498 11.46 22.2498 10.8 21.3698L9.29999 19.3698C9.13999 19.1498 8.78 18.9697 8.5 18.9697Z" fill="#01684B"/>
<path d="M8.00043 13.4497C7.81043 13.4497 7.62043 13.3796 7.47043 13.2296L5.47043 11.2296C5.18043 10.9396 5.18043 10.4596 5.47043 10.1696L7.47043 8.16965C7.76043 7.87965 8.24043 7.87965 8.53043 8.16965C8.82043 8.45965 8.82043 8.93965 8.53043 9.22965L7.06043 10.6997L8.53043 12.1696C8.82043 12.4596 8.82043 12.9396 8.53043 13.2296C8.38043 13.3796 8.19043 13.4497 8.00043 13.4497Z" fill="#01684B"/>
<path d="M16.0004 13.4497C15.8104 13.4497 15.6204 13.3796 15.4704 13.2296C15.1804 12.9396 15.1804 12.4596 15.4704 12.1696L16.9404 10.6997L15.4704 9.22965C15.1804 8.93965 15.1804 8.45965 15.4704 8.16965C15.7604 7.87965 16.2404 7.87965 16.5304 8.16965L18.5304 10.1696C18.8204 10.4596 18.8204 10.9396 18.5304 11.2296L16.5304 13.2296C16.3804 13.3796 16.1904 13.4497 16.0004 13.4497Z" fill="#01684B"/>
<path d="M11.0004 13.7798C10.9004 13.7798 10.8004 13.7597 10.7004 13.7197C10.3204 13.5597 10.1404 13.1197 10.3104 12.7297L12.3104 8.05975C12.4704 7.67975 12.9103 7.49973 13.3003 7.66973C13.6803 7.82973 13.8604 8.26972 13.6904 8.65972L11.6904 13.3298C11.5704 13.6098 11.2904 13.7798 11.0004 13.7798Z" fill="#01684B"/>
</svg>
