<svg width="24" height="24" viewBox="0 0 24 24" fill="none" xmlns="http://www.w3.org/2000/svg">
<path d="M20.0196 10.7004L17.2196 12.4704L11.5596 6.81041L13.3196 4.01041C14.1396 2.72041 15.7796 2.66041 16.9896 3.86041L20.1696 7.04041C21.2996 8.17041 21.2296 9.93041 20.0196 10.7004Z" fill="#01684B"/>
<path opacity="0.4" d="M14.7103 19.9505L6.0003 20.9805C5.4003 21.0505 4.8603 20.9605 4.4103 20.7405C3.9203 20.5005 3.5403 20.1205 3.3003 19.6305C3.0803 19.1805 3.0003 18.6405 3.0603 18.0505L4.1003 9.33047C4.3503 7.15047 5.1603 6.44047 7.4603 6.57047L11.5803 6.82047L17.2403 12.4805L17.4803 16.6005C17.6903 18.9005 16.9003 19.7005 14.7103 19.9505Z" fill="#01684B"/>
<path d="M7.98004 17.1497L4.40004 20.7297C3.91004 20.4897 3.53004 20.1097 3.29004 19.6197L6.88004 16.0297C7.19004 15.7297 7.69004 15.7297 7.99004 16.0297C8.30004 16.3497 8.30004 16.8397 7.98004 17.1497Z" fill="#01684B"/>
</svg>
