<svg width="32" height="31" viewBox="0 0 32 31" fill="none" xmlns="http://www.w3.org/2000/svg">
<g id="global-line">
<path id="Vector" d="M16.0839 27.7703C9.13116 27.7703 3.49487 22.1339 3.49487 15.1813C3.49487 8.22857 9.13116 2.59229 16.0839 2.59229C23.0365 2.59229 28.6729 8.22857 28.6729 15.1813C28.6729 22.1339 23.0365 27.7703 16.0839 27.7703ZM13.201 24.8338C11.9892 22.2637 11.2463 19.4291 11.0827 16.4402H6.09059C6.58925 20.4391 9.43233 23.7099 13.201 24.8338ZM13.6047 16.4402C13.7941 19.5104 14.6711 22.3944 16.0839 24.9403C17.4966 22.3944 18.3737 19.5104 18.563 16.4402H13.6047ZM26.0771 16.4402H21.0851C20.9214 19.4291 20.1786 22.2637 18.9668 24.8338C22.7354 23.7099 25.5785 20.4391 26.0771 16.4402ZM6.09059 13.9224H11.0827C11.2463 10.9335 11.9892 8.0988 13.201 5.52874C9.43233 6.65265 6.58925 9.92349 6.09059 13.9224ZM13.6047 13.9224H18.563C18.3737 10.8522 17.4966 7.9681 16.0839 5.42228C14.6711 7.9681 13.7941 10.8522 13.6047 13.9224ZM18.9668 5.52874C20.1786 8.0988 20.9214 10.9335 21.0851 13.9224H26.0771C25.5785 9.92349 22.7354 6.65265 18.9668 5.52874Z" fill="#015E44"/>
</g>
</svg>
