<svg width="25" height="25" viewBox="0 0 25 25" fill="none" xmlns="http://www.w3.org/2000/svg">
<g id="instagram-line">
<path id="Vector" d="M12.0962 9.10889C10.4388 9.10889 9.09619 10.452 9.09619 12.1089C9.09619 13.7662 10.4393 15.1089 12.0962 15.1089C13.7535 15.1089 15.0962 13.7658 15.0962 12.1089C15.0962 10.4516 13.7531 9.10889 12.0962 9.10889ZM12.0962 7.10889C14.8566 7.10889 17.0962 9.34599 17.0962 12.1089C17.0962 14.8694 14.8591 17.1089 12.0962 17.1089C9.33572 17.1089 7.09619 14.8718 7.09619 12.1089C7.09619 9.34842 9.33329 7.10889 12.0962 7.10889ZM18.5962 6.85804C18.5962 7.54815 18.0354 8.10806 17.3462 8.10806C16.6561 8.10806 16.0962 7.54729 16.0962 6.85804C16.0962 6.16879 16.6569 5.60889 17.3462 5.60889C18.0345 5.60802 18.5962 6.16879 18.5962 6.85804ZM12.0962 4.10889C9.62171 4.10889 9.21839 4.11544 8.06748 4.16669C7.28336 4.2035 6.75774 4.30896 6.26937 4.49856C5.83537 4.66688 5.5223 4.86787 5.18873 5.20144C4.85388 5.53629 4.65325 5.84852 4.48561 6.28272C4.29557 6.77221 4.19014 7.297 4.15399 8.08004C4.10224 9.18409 4.09619 9.56994 4.09619 12.1089C4.09619 14.5834 4.10274 14.9867 4.15398 16.1375C4.19081 16.9213 4.29641 17.4477 4.48555 17.9349C4.65431 18.3695 4.85571 18.6833 5.18767 19.0153C5.52384 19.351 5.837 19.5523 6.26708 19.7183C6.7614 19.9094 7.28669 20.015 8.06733 20.0511C9.17139 20.1028 9.55724 20.1089 12.0962 20.1089C14.5707 20.1089 14.974 20.1023 16.1248 20.0511C16.9069 20.0144 17.4337 19.9085 17.9222 19.7195C18.3556 19.5512 18.6704 19.3491 19.0026 19.0174C19.3388 18.6807 19.5397 18.3683 19.7059 17.9372C19.8965 17.4447 20.0023 16.9187 20.0384 16.1378C20.0901 15.0337 20.0962 14.6478 20.0962 12.1089C20.0962 9.63441 20.0896 9.2311 20.0384 8.08026C20.0016 7.29795 19.8957 6.77038 19.7065 6.28207C19.5386 5.84927 19.3369 5.53524 19.0036 5.20144C18.6682 4.86604 18.3568 4.66582 17.9223 4.49831C17.4332 4.30843 16.9076 4.20285 16.125 4.1667C15.021 4.11494 14.6351 4.10889 12.0962 4.10889ZM12.0962 2.10889C14.8128 2.10889 15.152 2.11889 16.2187 2.16889C17.2828 2.21806 18.0087 2.38639 18.6462 2.63389C19.3053 2.88806 19.862 3.23139 20.4178 3.78722C20.9728 4.34306 21.3162 4.90139 21.5712 5.55889C21.8178 6.19556 21.9862 6.92222 22.0362 7.98639C22.0837 9.05306 22.0962 9.39222 22.0962 12.1089C22.0962 14.8256 22.0862 15.1647 22.0362 16.2314C21.987 17.2956 21.8178 18.0214 21.5712 18.6589C21.317 19.3181 20.9728 19.8747 20.4178 20.4306C19.862 20.9856 19.3028 21.3289 18.6462 21.5839C18.0087 21.8306 17.2828 21.9989 16.2187 22.0489C15.152 22.0964 14.8128 22.1089 12.0962 22.1089C9.37952 22.1089 9.04035 22.0989 7.97369 22.0489C6.90952 21.9997 6.18452 21.8306 5.54619 21.5839C4.88785 21.3297 4.33035 20.9856 3.77452 20.4306C3.21869 19.8747 2.87619 19.3156 2.62119 18.6589C2.37369 18.0214 2.20619 17.2956 2.15619 16.2314C2.10869 15.1647 2.09619 14.8256 2.09619 12.1089C2.09619 9.39222 2.10619 9.05306 2.15619 7.98639C2.20535 6.92139 2.37369 6.19639 2.62119 5.55889C2.87535 4.90056 3.21869 4.34306 3.77452 3.78722C4.33035 3.23139 4.88869 2.88889 5.54619 2.63389C6.18369 2.38639 6.90869 2.21889 7.97369 2.16889C9.04035 2.12139 9.37952 2.10889 12.0962 2.10889Z" fill="white"/>
</g>
</svg>
