<svg width="88" height="59" viewBox="0 0 88 59" fill="none" xmlns="http://www.w3.org/2000/svg">
<g id="logo">
<g id="logo_2">
<path d="M10.3845 21.3291C10.3845 24.0534 8.05983 26.2618 5.19224 26.2618C2.32464 26.2618 0 24.0534 0 21.3291C0 18.6049 2.32464 16.3965 5.19224 16.3965C8.05983 16.3965 10.3845 18.6049 10.3845 21.3291Z" fill="#FA003F"/>
<path d="M0.546875 32.7931C0.546875 30.0764 2.74917 27.8741 5.46584 27.8741C8.1825 27.8741 10.3848 30.0764 10.3848 32.7931V44.8172C10.3848 47.5339 8.1825 49.7362 5.46584 49.7362C2.74917 49.7362 0.546875 47.5339 0.546875 44.8172V32.7931Z" fill="#FA003F"/>
<path d="M22.4086 5.46551C22.4086 8.48403 19.9616 10.931 16.9431 10.931C13.9245 10.931 11.4775 8.48403 11.4775 5.46551C11.4775 2.44699 13.9245 0 16.9431 0C19.9616 0 22.4086 2.44699 22.4086 5.46551Z" fill="#01684B"/>
<path d="M12.0234 16.943C12.0234 14.2263 14.2257 12.024 16.9424 12.024C19.6591 12.024 21.8614 14.2263 21.8614 16.943V44.8171C21.8614 47.5338 19.6591 49.7361 16.9424 49.7361C14.2257 49.7361 12.0234 47.5338 12.0234 44.8171V16.943Z" fill="#01684B"/>
<path d="M34.4321 21.5888C34.4321 24.4563 32.1075 26.781 29.2399 26.781C26.3723 26.781 24.0477 24.4563 24.0477 21.5888C24.0477 18.7212 26.3723 16.3965 29.2399 16.3965C32.1075 16.3965 34.4321 18.7212 34.4321 21.5888Z" fill="#275DAD"/>
<path d="M24.5947 32.7931C24.5947 30.0764 26.797 27.8741 29.5137 27.8741C32.2304 27.8741 34.4326 30.0764 34.4326 32.7931V44.8172C34.4326 47.5339 32.2304 49.7362 29.5137 49.7362C26.797 49.7362 24.5947 47.5339 24.5947 44.8172V32.7931Z" fill="#275DAD"/>
<path d="M34.432 58.5761C29.5742 55.7694 23.5549 54.1087 17.0365 54.1087C11.3848 54.1087 6.10835 55.3571 1.63877 57.5185C5.81522 54.0413 11.3596 51.9224 17.4432 51.9224C24.1213 51.9224 30.1496 54.4756 34.432 58.5761Z" fill="url(#paint0_linear_642_207)"/>
<path d="M55.1496 49.5338H46.4722C43.7175 49.5338 41.7777 49.0437 40.6528 48.0634C39.5509 47.0593 39 45.3021 39 42.7917V24H55.1496V28.4469H43.7863V34.4359H51.7406L51.3963 38.8828H43.7863V42.4331C43.7863 43.4372 44.0044 44.1306 44.4406 44.5131C44.8768 44.8956 45.6687 45.0869 46.8165 45.0869H55.1496V49.5338Z" fill="url(#paint1_linear_642_207)"/>
<path d="M70.5578 49.5338H59.8488C58.678 49.5338 57.7712 49.2828 57.1285 48.7807C56.5087 48.2547 56.1988 47.5255 56.1988 46.5931C56.1988 45.6607 56.5775 44.6805 57.3351 43.6524L65.5304 33.0731H57.3351V29.0566H70.9021V32.6069L61.1228 45.5172H70.5578V49.5338Z" fill="url(#paint2_linear_642_207)"/>
<path d="M87.9311 40.389H76.4646C76.4646 42.2538 76.7401 43.6166 77.291 44.4772C77.8649 45.3379 79.0012 45.7683 80.7 45.7683C81.8019 45.7683 82.6168 45.4097 83.1448 44.6924C83.6728 43.9513 83.9368 43.246 83.9368 42.5766H87.9656C87.9656 45.1347 87.2998 47.0115 85.9684 48.2069C84.6599 49.4023 82.9152 50 80.7344 50C78.5765 50 76.9007 49.6772 75.707 49.0317C73.2507 47.7168 72.0226 44.2262 72.0226 38.56C72.0226 35.189 72.7227 32.7264 74.1231 31.1724C75.5234 29.5945 77.6583 28.8055 80.5278 28.8055C85.5093 28.8055 88 31.6864 88 37.4483C88 38.0699 87.977 39.0501 87.9311 40.389ZM76.5679 37.1972H83.9368C83.9368 35.6193 83.6498 34.4717 83.0759 33.7545C82.502 33.0372 81.6182 32.6786 80.4245 32.6786C79.2537 32.6786 78.3125 33.0492 77.6009 33.7903C76.9122 34.5076 76.5679 35.6432 76.5679 37.1972Z" fill="url(#paint3_linear_642_207)"/>
</g>
</g>
<defs>
<linearGradient id="paint0_linear_642_207" x1="44" y1="0" x2="44" y2="58.5761" gradientUnits="userSpaceOnUse">
<stop stop-color="#383F39"/>
<stop offset="0.716667" stop-color="#090B09"/>
</linearGradient>
<linearGradient id="paint1_linear_642_207" x1="44" y1="0" x2="44" y2="58.5761" gradientUnits="userSpaceOnUse">
<stop stop-color="#383F39"/>
<stop offset="0.716667" stop-color="#090B09"/>
</linearGradient>
<linearGradient id="paint2_linear_642_207" x1="44" y1="0" x2="44" y2="58.5761" gradientUnits="userSpaceOnUse">
<stop stop-color="#383F39"/>
<stop offset="0.716667" stop-color="#090B09"/>
</linearGradient>
<linearGradient id="paint3_linear_642_207" x1="44" y1="0" x2="44" y2="58.5761" gradientUnits="userSpaceOnUse">
<stop stop-color="#383F39"/>
<stop offset="0.716667" stop-color="#090B09"/>
</linearGradient>
</defs>
</svg>
