<svg width="25" height="25" viewBox="0 0 25 25" fill="none" xmlns="http://www.w3.org/2000/svg">
<g id="whatsapp-line">
<path id="Vector" d="M7.34882 18.6033L8.07355 19.0259C9.2843 19.7319 10.6603 20.1089 12.0962 20.1089C16.5145 20.1089 20.0962 16.5272 20.0962 12.1089C20.0962 7.69061 16.5145 4.10889 12.0962 4.10889C7.67791 4.10889 4.09619 7.69061 4.09619 12.1089C4.09619 13.5452 4.47342 14.9217 5.17987 16.1327L5.60225 16.8567L4.94876 19.2583L7.34882 18.6033ZM2.10037 22.1089L3.45233 17.1404C2.59015 15.6625 2.09619 13.9434 2.09619 12.1089C2.09619 6.58604 6.57334 2.10889 12.0962 2.10889C17.619 2.10889 22.0962 6.58604 22.0962 12.1089C22.0962 17.6317 17.619 22.1089 12.0962 22.1089C10.2623 22.1089 8.54372 21.6153 7.06607 20.7536L2.10037 22.1089ZM8.48753 7.41722C8.62141 7.40781 8.75574 7.40637 8.8898 7.41291C8.94396 7.41647 8.99786 7.42273 9.0518 7.42896C9.21106 7.44735 9.38619 7.54434 9.44507 7.67783C9.74339 8.35425 10.0329 9.03454 10.3134 9.71852C10.3753 9.86951 10.338 10.0652 10.2202 10.2546C10.1604 10.3517 10.0665 10.4879 9.95769 10.6272C9.8446 10.7719 9.6012 11.038 9.6012 11.038C9.6012 11.038 9.50259 11.1562 9.53976 11.3033C9.55424 11.3589 9.60042 11.4399 9.64229 11.508C9.66548 11.5457 9.68701 11.5794 9.70098 11.6027C9.9569 12.03 10.3009 12.4632 10.7211 12.8705C10.8415 12.9872 10.9583 13.1063 11.0839 13.2169C11.5522 13.6298 12.082 13.9672 12.6542 14.2171L12.6593 14.2194C12.7438 14.2558 12.7872 14.2757 12.9109 14.3282C12.9733 14.3546 13.0371 14.3774 13.1026 14.3947C13.1263 14.4009 13.1506 14.4044 13.175 14.4061C13.3367 14.4158 13.4302 14.3121 13.4701 14.2644C14.1936 13.3879 14.2598 13.3307 14.2648 13.3311V13.3327C14.3599 13.2325 14.5094 13.1977 14.6428 13.2059C14.7037 13.2096 14.7643 13.2213 14.8197 13.2466C15.3515 13.4892 16.221 13.8676 16.221 13.8676L16.8025 14.129C16.8999 14.176 16.9888 14.2867 16.9931 14.3943C16.9957 14.4612 17.0029 14.5692 16.979 14.7668C16.9477 15.0255 16.869 15.337 16.7908 15.5002C16.7358 15.6147 16.6646 15.7163 16.5818 15.8023C16.4695 15.9189 16.3861 15.9897 16.2511 16.0903C16.1689 16.1515 16.1263 16.1803 16.1263 16.1803C15.9874 16.2679 15.9091 16.3117 15.7436 16.3998C15.4862 16.5369 15.2018 16.6157 14.9105 16.6307C14.7248 16.6402 14.5396 16.6536 14.3541 16.6436C14.3459 16.6431 13.7859 16.5571 13.7859 16.5571C12.364 16.1831 11.049 15.4825 9.94555 14.5109C9.71994 14.3123 9.51071 14.0974 9.29715 13.8848C8.40809 12.9997 7.73503 12.0453 7.3269 11.1425C7.12564 10.6973 6.9982 10.2205 6.99619 9.72987C6.9925 9.12294 7.1912 8.53209 7.5609 8.05075C7.63378 7.95586 7.70295 7.85744 7.8223 7.74475C7.94869 7.6254 8.02913 7.56133 8.11578 7.517C8.23128 7.45791 8.35814 7.42631 8.48753 7.41722Z" fill="white"/>
</g>
</svg>
