<svg width="40" height="40" viewBox="0 0 40 40" fill="none" xmlns="http://www.w3.org/2000/svg">
<path d="M35.1497 11.6333C33.7331 10.0666 31.3664 9.28328 27.9331 9.28328H27.5331V9.21662C27.5331 6.41662 27.5331 2.94995 21.2664 2.94995H18.7331C12.4664 2.94995 12.4664 6.43328 12.4664 9.21662V9.29995H12.0664C8.6164 9.29995 6.2664 10.0833 4.84974 11.65C3.19974 13.4833 3.24974 15.95 3.4164 17.6333L3.43307 17.7499L3.59974 19.5C3.6164 19.5166 3.64974 19.5499 3.68307 19.5666C4.23307 19.9333 4.79974 20.3 5.39974 20.6333C5.63307 20.7833 5.88307 20.9166 6.13307 21.05C8.98307 22.6166 12.1164 23.6666 15.2997 24.1833C15.4497 25.75 16.1331 27.5833 19.7831 27.5833C23.4331 27.5833 24.1497 25.7666 24.2664 24.15C27.6664 23.5999 30.9497 22.4166 33.9164 20.6833C34.0164 20.6333 34.0831 20.5833 34.1664 20.5333C34.9331 20.0999 35.6497 19.6333 36.3497 19.1166C36.3831 19.1 36.4164 19.0666 36.4331 19.0333L36.4997 18.4333L36.5831 17.65C36.5997 17.55 36.5997 17.4666 36.6164 17.3499C36.7497 15.6666 36.7164 13.3666 35.1497 11.6333ZM21.8164 23.0499C21.8164 24.8166 21.8164 25.0833 19.7664 25.0833C17.7164 25.0833 17.7164 24.7666 17.7164 23.0666V20.9666H21.8164V23.0499ZM14.8497 9.28328V9.21662C14.8497 6.38328 14.8497 5.33328 18.7331 5.33328H21.2664C25.1497 5.33328 25.1497 6.39995 25.1497 9.21662V9.29995H14.8497V9.28328Z" fill="#A3ADBB"/>
<path opacity="0.4" d="M34.1663 20.5C34.0829 20.55 33.9996 20.6 33.9163 20.65C30.9496 22.3833 27.6663 23.55 24.2663 24.1167C24.1329 25.7167 23.4329 27.55 19.7829 27.55C16.1329 27.55 15.4329 25.7333 15.2996 24.15C12.1163 23.65 8.98294 22.6 6.13294 21.0167C5.88294 20.8833 5.63294 20.75 5.39961 20.6C4.79961 20.2667 4.23294 19.9 3.68294 19.5333C3.64961 19.5167 3.61628 19.4833 3.59961 19.4667L4.61628 30.3167C4.96628 33.6333 6.33294 37.05 13.6663 37.05H26.3663C33.6996 37.05 35.0663 33.6333 35.4163 30.3L36.4663 19C36.4496 19.0333 36.4163 19.0667 36.3829 19.0833C35.6663 19.6 34.9329 20.0833 34.1663 20.5Z" fill="#A3ADBB"/>
</svg>
