<svg width="15" height="16" viewBox="0 0 15 16" fill="none" xmlns="http://www.w3.org/2000/svg">
<path d="M10.4679 2.725V1.75C10.4679 1.49375 10.2554 1.28125 9.99917 1.28125C9.74292 1.28125 9.53042 1.49375 9.53042 1.75V2.6875H5.46792V1.75C5.46792 1.49375 5.25542 1.28125 4.99917 1.28125C4.74292 1.28125 4.53042 1.49375 4.53042 1.75V2.725C2.84292 2.88125 2.02417 3.8875 1.89917 5.38125C1.88667 5.5625 2.03667 5.7125 2.21167 5.7125H12.7867C12.9679 5.7125 13.1179 5.55625 13.0992 5.38125C12.9742 3.8875 12.1554 2.88125 10.4679 2.725Z" fill="#47586E"/>
<path opacity="0.4" d="M12.5 6.6499C12.8438 6.6499 13.125 6.93115 13.125 7.2749V11.1249C13.125 12.9999 12.1875 14.2499 10 14.2499H5C2.8125 14.2499 1.875 12.9999 1.875 11.1249V7.2749C1.875 6.93115 2.15625 6.6499 2.5 6.6499H12.5Z" fill="#47586E"/>
<path d="M5.3125 9.8748C5.15 9.8748 4.9875 9.80604 4.86875 9.69354C4.75625 9.57479 4.6875 9.4123 4.6875 9.2498C4.6875 9.0873 4.75625 8.9248 4.86875 8.80605C5.04375 8.63105 5.31875 8.57479 5.55 8.67479C5.63125 8.70604 5.7 8.7498 5.75625 8.80605C5.86875 8.9248 5.9375 9.0873 5.9375 9.2498C5.9375 9.4123 5.86875 9.57479 5.75625 9.69354C5.6375 9.80604 5.475 9.8748 5.3125 9.8748Z" fill="#47586E"/>
<path d="M7.5 9.8748C7.3375 9.8748 7.175 9.80604 7.05625 9.69354C6.94375 9.57479 6.875 9.4123 6.875 9.2498C6.875 9.0873 6.94375 8.9248 7.05625 8.80605C7.1125 8.7498 7.18125 8.70604 7.2625 8.67479C7.49375 8.57479 7.76875 8.63105 7.94375 8.80605C8.05625 8.9248 8.125 9.0873 8.125 9.2498C8.125 9.4123 8.05625 9.57479 7.94375 9.69354C7.9125 9.71854 7.88125 9.74354 7.85 9.76854C7.8125 9.79354 7.775 9.81231 7.7375 9.82481C7.7 9.84356 7.6625 9.85606 7.625 9.86231C7.58125 9.86856 7.54375 9.8748 7.5 9.8748Z" fill="#47586E"/>
<path d="M9.6875 9.87501C9.525 9.87501 9.3625 9.80625 9.24375 9.69375C9.13125 9.575 9.0625 9.41251 9.0625 9.25001C9.0625 9.08751 9.13125 8.92501 9.24375 8.80626C9.30625 8.75001 9.36875 8.70625 9.45 8.675C9.5625 8.625 9.6875 8.6125 9.8125 8.6375C9.85 8.64375 9.8875 8.65625 9.925 8.675C9.9625 8.6875 10 8.70627 10.0375 8.73127C10.0688 8.75627 10.1 8.78126 10.1312 8.80626C10.2437 8.92501 10.3125 9.08751 10.3125 9.25001C10.3125 9.41251 10.2437 9.575 10.1312 9.69375C10.1 9.71875 10.0688 9.74375 10.0375 9.76875C10 9.79375 9.9625 9.81252 9.925 9.82502C9.8875 9.84377 9.85 9.85626 9.8125 9.86251C9.76875 9.86876 9.725 9.87501 9.6875 9.87501Z" fill="#47586E"/>
<path d="M5.3125 12.0625C5.23125 12.0625 5.15 12.0438 5.075 12.0125C4.99375 11.9813 4.93125 11.9375 4.86875 11.8813C4.75625 11.7625 4.6875 11.6 4.6875 11.4375C4.6875 11.275 4.75625 11.1125 4.86875 10.9938C4.93125 10.9375 4.99375 10.8937 5.075 10.8625C5.1875 10.8125 5.3125 10.8 5.4375 10.825C5.475 10.8313 5.5125 10.8437 5.55 10.8625C5.5875 10.875 5.625 10.8938 5.6625 10.9188C5.69375 10.9438 5.725 10.9688 5.75625 10.9938C5.86875 11.1125 5.9375 11.275 5.9375 11.4375C5.9375 11.6 5.86875 11.7625 5.75625 11.8813C5.725 11.9063 5.69375 11.9375 5.6625 11.9562C5.625 11.9812 5.5875 12 5.55 12.0125C5.5125 12.0313 5.475 12.0438 5.4375 12.05C5.39375 12.0563 5.35625 12.0625 5.3125 12.0625Z" fill="#47586E"/>
<path d="M7.5 12.0625C7.3375 12.0625 7.175 11.9937 7.05625 11.8812C6.94375 11.7625 6.875 11.6 6.875 11.4375C6.875 11.275 6.94375 11.1125 7.05625 10.9937C7.2875 10.7625 7.7125 10.7625 7.94375 10.9937C8.05625 11.1125 8.125 11.275 8.125 11.4375C8.125 11.6 8.05625 11.7625 7.94375 11.8812C7.825 11.9937 7.6625 12.0625 7.5 12.0625Z" fill="#47586E"/>
<path d="M9.6875 12.0625C9.525 12.0625 9.3625 11.9937 9.24375 11.8812C9.13125 11.7625 9.0625 11.6 9.0625 11.4375C9.0625 11.275 9.13125 11.1125 9.24375 10.9937C9.475 10.7625 9.9 10.7625 10.1312 10.9937C10.2437 11.1125 10.3125 11.275 10.3125 11.4375C10.3125 11.6 10.2437 11.7625 10.1312 11.8812C10.0125 11.9937 9.85 12.0625 9.6875 12.0625Z" fill="#47586E"/>
</svg>
