<svg width="100" height="100" viewBox="0 0 100 100" fill="none" xmlns="http://www.w3.org/2000/svg">
<rect width="100" height="100" rx="50" fill="white"/>
<path opacity="0.4" d="M49.9997 15.8333C41.048 15.8333 33.7705 23.1108 33.7705 32.0625C33.7705 40.8433 40.638 47.95 49.5897 48.2575C49.863 48.2233 50.1363 48.2233 50.3413 48.2575C50.4097 48.2575 50.4438 48.2575 50.5122 48.2575C50.5463 48.2575 50.5463 48.2575 50.5805 48.2575C59.3272 47.95 66.1947 40.8433 66.2288 32.0625C66.2288 23.1108 58.9513 15.8333 49.9997 15.8333Z" fill="#292D32"/>
<path d="M67.3563 57.3458C57.8238 50.9908 42.278 50.9908 32.6771 57.3458C28.338 60.25 25.9463 64.1792 25.9463 68.3817C25.9463 72.5842 28.338 76.4792 32.643 79.3492C37.4263 82.5608 43.713 84.1667 49.9996 84.1667C56.2863 84.1667 62.573 82.5608 67.3563 79.3492C71.6613 76.445 74.053 72.55 74.053 68.3133C74.0188 64.1108 71.6613 60.2158 67.3563 57.3458Z" fill="#292D32"/>
</svg>
