<svg width="40" height="40" viewBox="0 0 40 40" fill="none" xmlns="http://www.w3.org/2000/svg">
<path d="M32.2838 8.15001L22.5171 3.80001C21.0838 3.16668 18.9171 3.16668 17.4838 3.80001L7.71712 8.15001C5.25046 9.25001 4.88379 10.75 4.88379 11.55C4.88379 12.35 5.25046 13.85 7.71712 14.95L17.4838 19.3C18.2005 19.6167 19.1005 19.7833 20.0005 19.7833C20.9005 19.7833 21.8005 19.6167 22.5171 19.3L32.2838 14.95C34.7505 13.85 35.1171 12.35 35.1171 11.55C35.1171 10.75 34.7671 9.25001 32.2838 8.15001Z" fill="#A3ADBB"/>
<path opacity="0.4" d="M19.9995 28.4C19.3662 28.4 18.7329 28.2666 18.1495 28.0166L6.91621 23.0166C5.19954 22.25 3.86621 20.2 3.86621 18.3166C3.86621 17.6333 4.41621 17.0833 5.09954 17.0833C5.78288 17.0833 6.33288 17.6333 6.33288 18.3166C6.33288 19.2166 7.08288 20.3833 7.91621 20.75L19.1495 25.75C19.6829 25.9833 20.2995 25.9833 20.8329 25.75L32.0662 20.75C32.8995 20.3833 33.6495 19.2333 33.6495 18.3166C33.6495 17.6333 34.1995 17.0833 34.8829 17.0833C35.5662 17.0833 36.1162 17.6333 36.1162 18.3166C36.1162 20.1833 34.7829 22.25 33.0662 23.0166L21.8329 28.0166C21.2662 28.2666 20.6329 28.4 19.9995 28.4Z" fill="#A3ADBB"/>
<path opacity="0.4" d="M19.9995 36.6666C19.3662 36.6666 18.7329 36.5333 18.1495 36.2833L6.91621 31.2833C5.06621 30.4666 3.86621 28.6166 3.86621 26.5833C3.86621 25.9 4.41621 25.35 5.09954 25.35C5.78288 25.35 6.33288 25.9 6.33288 26.5833C6.33288 27.6333 6.94954 28.5833 7.91621 29.0166L19.1495 34.0166C19.6829 34.25 20.2995 34.25 20.8329 34.0166L32.0662 29.0166C33.0162 28.6 33.6495 27.6333 33.6495 26.5833C33.6495 25.9 34.1995 25.35 34.8829 25.35C35.5662 25.35 36.1162 25.9 36.1162 26.5833C36.1162 28.6166 34.9162 30.45 33.0662 31.2833L21.8329 36.2833C21.2662 36.5333 20.6329 36.6666 19.9995 36.6666Z" fill="#A3ADBB"/>
</svg>
