<svg width="15" height="16" viewBox="0 0 15 16" fill="none" xmlns="http://www.w3.org/2000/svg">
<path opacity="0.4" d="M12.8867 5.78125C12.2305 2.89375 9.71171 1.59375 7.49921 1.59375C7.49921 1.59375 7.49921 1.59375 7.49296 1.59375C5.28671 1.59375 2.76171 2.8875 2.10546 5.775C1.37421 9 3.34921 11.7312 5.13671 13.45C5.79921 14.0875 6.64921 14.4062 7.49921 14.4062C8.34921 14.4062 9.19921 14.0875 9.85546 13.45C11.643 11.7312 13.618 9.00625 12.8867 5.78125Z" fill="#47586E"/>
<path d="M7.5 8.9126C8.58731 8.9126 9.46875 8.03116 9.46875 6.94385C9.46875 5.85654 8.58731 4.9751 7.5 4.9751C6.41269 4.9751 5.53125 5.85654 5.53125 6.94385C5.53125 8.03116 6.41269 8.9126 7.5 8.9126Z" fill="#47586E"/>
</svg>
