<svg width="40" height="40" viewBox="0 0 40 40" fill="none" xmlns="http://www.w3.org/2000/svg">
<path opacity="0.4" d="M36.1 17.4L34.4666 24.3666C33.0666 30.3833 30.3 32.8166 25.1 32.3166C24.2666 32.25 23.3666 32.1 22.4 31.8666L19.6 31.2C12.65 29.55 10.5 26.1166 12.1333 19.15L13.7666 12.1666C14.1 10.75 14.5 9.51664 15 8.49997C16.95 4.46664 20.2666 3.38331 25.8333 4.69997L28.6166 5.34997C35.6 6.98331 37.7333 10.4333 36.1 17.4Z" fill="#A3ADBB"/>
<path d="M25.0996 32.3167C24.0663 33.0167 22.7663 33.6 21.1829 34.1167L18.5496 34.9833C11.9329 37.1167 8.44959 35.3333 6.29959 28.7167L4.16626 22.1333C2.03293 15.5167 3.79959 12.0167 10.4163 9.88333L13.0496 9.01667C13.7329 8.8 14.3829 8.61667 14.9996 8.5C14.4996 9.51667 14.0996 10.75 13.7663 12.1667L12.1329 19.15C10.4996 26.1167 12.6496 29.55 19.5996 31.2L22.3996 31.8667C23.3663 32.1 24.2663 32.25 25.0996 32.3167Z" fill="#A3ADBB"/>
<path d="M29.1503 17.5167C29.0503 17.5167 28.9503 17.5 28.8336 17.4833L20.7503 15.4333C20.0836 15.2667 19.6836 14.5833 19.8503 13.9167C20.0169 13.25 20.7003 12.85 21.3669 13.0167L29.4503 15.0667C30.1169 15.2333 30.5169 15.9167 30.3503 16.5833C30.2169 17.1333 29.7003 17.5167 29.1503 17.5167Z" fill="#A3ADBB"/>
<path d="M24.2666 23.15C24.1666 23.15 24.0666 23.1333 23.9499 23.1167L19.0999 21.8833C18.4332 21.7167 18.0332 21.0333 18.1999 20.3667C18.3666 19.7 19.0499 19.3 19.7166 19.4667L24.5666 20.7C25.2332 20.8667 25.6332 21.55 25.4666 22.2167C25.3332 22.7833 24.8332 23.15 24.2666 23.15Z" fill="#A3ADBB"/>
</svg>
