<svg width="40" height="40" viewBox="0 0 40 40" fill="none" xmlns="http://www.w3.org/2000/svg">
<path opacity="0.4" d="M30.6329 21.4V29.6167C30.6329 31.7334 28.9829 34 26.9995 34.6667L21.6829 36.4334C20.7495 36.75 19.2329 36.75 18.3162 36.4334L12.9995 34.6667C10.9995 34 9.36621 31.7334 9.36621 29.6167L9.38288 21.4L16.7495 26.2C18.5495 27.3834 21.5162 27.3834 23.3162 26.2L30.6329 21.4Z" fill="#A3ADBB"/>
<path d="M33.2995 10.7667L23.3162 4.21672C21.5162 3.03339 18.5495 3.03339 16.7495 4.21672L6.71621 10.7667C3.49954 12.8501 3.49954 17.5667 6.71621 19.6667L9.38288 21.4001L16.7495 26.2001C18.5495 27.3834 21.5162 27.3834 23.3162 26.2001L30.6329 21.4001L32.9162 19.9001V25.0001C32.9162 25.6834 33.4829 26.2501 34.1662 26.2501C34.8495 26.2501 35.4162 25.6834 35.4162 25.0001V16.8001C36.0829 14.6501 35.3995 12.1501 33.2995 10.7667Z" fill="#A3ADBB"/>
</svg>
