<svg width="32" height="32" viewBox="0 0 32 32" fill="none" xmlns="http://www.w3.org/2000/svg">
<path d="M25.7736 7.57333L17.4136 3.06667C16.5336 2.58667 15.4669 2.58667 14.5869 3.06667L6.2269 7.57333C5.61357 7.90666 5.24023 8.54667 5.24023 9.28C5.24023 10 5.61357 10.6533 6.2269 10.9867L14.5869 15.4933C15.0269 15.7333 15.5202 15.8533 16.0002 15.8533C16.4802 15.8533 16.9736 15.7333 17.4136 15.4933L25.7736 10.9867C26.3869 10.6533 26.7602 10.0133 26.7602 9.28C26.7602 8.54667 26.3869 7.90666 25.7736 7.57333Z" fill="#01684B"/>
<path opacity="0.4" d="M13.2127 17.0534L5.42602 13.16C4.82602 12.8667 4.13268 12.8934 3.57268 13.24C2.99935 13.6 2.66602 14.2 2.66602 14.8667V22.2134C2.66602 23.48 3.37268 24.6267 4.50602 25.2L12.2793 29.0934C12.546 29.2267 12.8393 29.2934 13.1327 29.2934C13.4793 29.2934 13.826 29.2 14.1327 29.0134C14.706 28.6667 15.0393 28.0534 15.0393 27.3867V20.04C15.0527 18.76 14.346 17.6134 13.2127 17.0534Z" fill="#01684B"/>
<path opacity="0.4" d="M28.4276 13.2399C27.8543 12.8933 27.1609 12.8533 26.5743 13.1599L18.8009 17.0533C17.6676 17.6266 16.9609 18.7599 16.9609 20.0399V27.3866C16.9609 28.0533 17.2943 28.6666 17.8676 29.0133C18.1743 29.1999 18.5209 29.2933 18.8676 29.2933C19.1609 29.2933 19.4543 29.2266 19.7209 29.0933L27.4943 25.1999C28.6276 24.6266 29.3343 23.4933 29.3343 22.2133V14.8666C29.3343 14.1999 29.0009 13.5999 28.4276 13.2399Z" fill="#A3ADBB"/>
</svg>
