<svg width="24" height="24" viewBox="0 0 24 24" fill="none" xmlns="http://www.w3.org/2000/svg">
<path opacity="0.4" d="M12 22C17.5228 22 22 17.5228 22 12C22 6.47715 17.5228 2 12 2C6.47715 2 2 6.47715 2 12C2 17.5228 6.47715 22 12 22Z" fill="#292D32"/>
<path d="M10.6099 13.0569L10.6099 13.0569L10.6133 13.0535L12.0233 11.6435C12.0233 11.6435 12.0233 11.6435 12.0233 11.6435C12.118 11.5488 12.2814 11.5488 12.3762 11.6435C12.4709 11.7382 12.4709 11.9016 12.3762 11.9964L12.3762 11.9964L10.9662 13.4064C10.9662 13.4064 10.9662 13.4064 10.9662 13.4064C10.635 13.7376 10.4498 14.1737 10.4498 14.6399C10.4498 15.0983 10.6296 15.549 10.9699 15.8772C11.6555 16.5587 12.7593 16.5575 13.4433 15.8735L13.0898 15.5199L13.4433 15.8735L15.6633 13.6535C17.1286 12.1882 17.1286 9.81165 15.6633 8.34639C14.198 6.88113 11.8215 6.88112 10.3562 8.34638C10.3562 8.34638 10.3562 8.34638 10.3562 8.34639L7.93619 10.7664L7.93618 10.7664C7.33404 11.3685 6.99976 12.165 6.99976 13.0099C6.99976 13.8509 7.33131 14.6593 7.93736 15.2547C8.03092 15.3496 8.03052 15.512 7.93618 15.6064C7.84144 15.7011 7.67803 15.7011 7.58329 15.6064C6.88826 14.9113 6.50977 13.989 6.50977 12.9999C6.50977 12.0108 6.88826 11.0885 7.58329 10.3935L10.0033 7.97348L10.0033 7.97348C11.6581 6.31874 14.3615 6.31874 16.0162 7.97348C17.6709 9.62821 17.6709 12.3316 16.0162 13.9864L16.3511 14.3213L16.0162 13.9864L13.7962 16.2064L13.7962 16.2064L13.793 16.2096C13.3506 16.6603 12.7807 16.8799 12.1998 16.8799C11.6259 16.8799 11.045 16.6581 10.6133 16.2264C10.1853 15.7984 9.94977 15.2349 9.94977 14.6399C9.94977 14.0422 10.1872 13.4715 10.6099 13.0569Z" fill="#292D32" stroke="#01533C"/>
</svg>
