<svg width="32" height="32" viewBox="0 0 32 32" fill="none" xmlns="http://www.w3.org/2000/svg">
<path opacity="0.4" d="M20.666 17.5334H17.7727C15.3993 17.5334 13.466 15.6134 13.466 13.2267V10.3334C13.466 9.78671 13.026 9.33337 12.466 9.33337H8.23935C5.15935 9.33337 2.66602 11.3334 2.66602 14.9067V23.76C2.66602 27.3334 5.15935 29.3334 8.23935 29.3334H16.0927C19.1727 29.3334 21.666 27.3334 21.666 23.76V18.5334C21.666 17.9734 21.2127 17.5334 20.666 17.5334Z" fill="#A3ADBB"/>
<path d="M23.759 2.66663H21.1324H19.679H15.9057C12.8924 2.66663 10.4524 4.58663 10.3457 8.01329C10.4257 8.01329 10.4924 7.99996 10.5724 7.99996H14.3457H15.799H18.4257C21.5057 7.99996 23.999 9.99996 23.999 13.5733V16.2V19.8133V22.44C23.999 22.52 23.9857 22.5866 23.9857 22.6533C26.959 22.56 29.3324 20.5866 29.3324 17.1066V14.48V10.8666V8.23996C29.3324 4.66663 26.839 2.66663 23.759 2.66663Z" fill="#A3ADBB"/>
<path d="M15.9735 9.53337C15.5602 9.12003 14.8535 9.40003 14.8535 9.97337V13.4667C14.8535 14.9334 16.0935 16.1334 17.6135 16.1334C18.5602 16.1467 19.8802 16.1467 21.0135 16.1467C21.5868 16.1467 21.8802 15.48 21.4802 15.08C20.0268 13.6267 17.4402 11.0267 15.9735 9.53337Z" fill="#A3ADBB"/>
</svg>
