<svg width="24" height="24" viewBox="0 0 24 24" fill="none" xmlns="http://www.w3.org/2000/svg">
<path opacity="0.4" d="M15.48 3H7.52C4.07 3 2 5.06 2 8.52V16.47C2 19.94 4.07 22 7.52 22H15.47C18.93 22 20.99 19.94 20.99 16.48V8.52C21 5.06 18.93 3 15.48 3Z" fill="white"/>
<path d="M21.0195 2.98003C19.2295 1.18003 17.4795 1.14003 15.6395 2.98003L14.5095 4.10003C14.4095 4.20003 14.3795 4.34003 14.4195 4.47003C15.1195 6.92003 17.0795 8.88003 19.5295 9.58003C19.5595 9.59003 19.6095 9.59003 19.6395 9.59003C19.7395 9.59003 19.8395 9.55003 19.9095 9.48003L21.0195 8.36003C21.9295 7.45003 22.3795 6.58003 22.3795 5.69003C22.3795 4.79003 21.9295 3.90003 21.0195 2.98003Z" fill="white"/>
<path d="M17.8591 10.42C17.5891 10.29 17.3291 10.16 17.0891 10.01C16.8891 9.88997 16.6891 9.75997 16.4991 9.61997C16.3391 9.51997 16.1591 9.36997 15.9791 9.21997C15.9591 9.20997 15.8991 9.15997 15.8191 9.07997C15.5091 8.82997 15.1791 8.48997 14.8691 8.11997C14.8491 8.09997 14.7891 8.03997 14.7391 7.94997C14.6391 7.83997 14.4891 7.64997 14.3591 7.43997C14.2491 7.29997 14.1191 7.09997 13.9991 6.88997C13.8491 6.63997 13.7191 6.38997 13.5991 6.12997C13.4691 5.84997 13.3691 5.58997 13.2791 5.33997L7.89912 10.72C7.54912 11.07 7.20912 11.73 7.13912 12.22L6.70912 15.2C6.61912 15.83 6.78912 16.42 7.17912 16.81C7.50912 17.14 7.95912 17.31 8.45912 17.31C8.56912 17.31 8.67912 17.3 8.78912 17.29L11.7591 16.87C12.2491 16.8 12.9091 16.47 13.2591 16.11L18.6391 10.73C18.3891 10.65 18.1391 10.54 17.8591 10.42Z" fill="white"/>
</svg>
