<svg width="24" height="24" viewBox="0 0 24 24" fill="none" xmlns="http://www.w3.org/2000/svg">
<path opacity="0.4" d="M16.19 2H7.81C4.17 2 2 4.17 2 7.81V16.18C2 19.83 4.17 22 7.81 22H16.18C19.82 22 21.99 19.83 21.99 16.19V7.81C22 4.17 19.83 2 16.19 2Z" fill="#01533C"/>
<path d="M15.5011 10.1301C16.5394 10.1301 17.3811 9.28841 17.3811 8.25012C17.3811 7.21182 16.5394 6.37012 15.5011 6.37012C14.4628 6.37012 13.6211 7.21182 13.6211 8.25012C13.6211 9.28841 14.4628 10.1301 15.5011 10.1301Z" fill="#01533C"/>
<path d="M8.50109 10.1301C9.53939 10.1301 10.3811 9.28841 10.3811 8.25012C10.3811 7.21182 9.53939 6.37012 8.50109 6.37012C7.4628 6.37012 6.62109 7.21182 6.62109 8.25012C6.62109 9.28841 7.4628 10.1301 8.50109 10.1301Z" fill="#01533C"/>
<path d="M15.5989 12.9199H8.39891C7.69891 12.9199 7.12891 13.4899 7.12891 14.1999C7.12891 16.8899 9.31891 19.0799 12.0089 19.0799C14.6989 19.0799 16.8889 16.8899 16.8889 14.1999C16.8789 13.4999 16.2989 12.9199 15.5989 12.9199Z" fill="#01533C"/>
</svg>
