<svg width="24" height="24" viewBox="0 0 24 24" fill="none" xmlns="http://www.w3.org/2000/svg">
<path opacity="0.4" d="M22 7.81V13.9L20.37 12.5C19.59 11.83 18.33 11.83 17.55 12.5L13.39 16.07C12.61 16.74 11.35 16.74 10.57 16.07L10.23 15.79C9.52 15.17 8.39 15.11 7.59 15.65L2.67 18.95L2.56 19.03C2.19 18.23 2 17.28 2 16.19V7.81C2 4.17 4.17 2 7.81 2H16.19C19.83 2 22 4.17 22 7.81Z" fill="#47586E"/>
<path d="M8.99914 10.38C10.3136 10.38 11.3791 9.31443 11.3791 8C11.3791 6.68556 10.3136 5.62 8.99914 5.62C7.6847 5.62 6.61914 6.68556 6.61914 8C6.61914 9.31443 7.6847 10.38 8.99914 10.38Z" fill="#47586E"/>
<path d="M22.0005 13.9V16.19C22.0005 19.83 19.8305 22 16.1905 22H7.81055C5.26055 22 3.42055 20.93 2.56055 19.03L2.67055 18.95L7.59055 15.65C8.39055 15.11 9.52055 15.17 10.2305 15.79L10.5705 16.07C11.3505 16.74 12.6105 16.74 13.3905 16.07L17.5505 12.5C18.3305 11.83 19.5905 11.83 20.3705 12.5L22.0005 13.9Z" fill="#47586E"/>
</svg>
