<svg width="61" height="61" viewBox="0 0 61 61" fill="none" xmlns="http://www.w3.org/2000/svg">
<path opacity="0.4" d="M43 23C43 32.675 34.6 40.5 24.25 40.5L21.925 43.3L20.55 44.9501C19.375 46.3501 17.125 46.05 16.35 44.375L13 36.9999C8.45 33.7999 5.5 28.725 5.5 23C5.5 13.325 13.9 5.5 24.25 5.5C31.8 5.5 38.325 9.67502 41.25 15.675C42.375 17.9 43 20.375 43 23Z" fill="#01533C"/>
<path d="M55.5008 32.65C55.5008 38.375 52.5508 43.4501 48.0008 46.6501L44.6508 54.025C43.8758 55.7 41.6258 56.0251 40.4508 54.6001L36.7508 50.15C30.7008 50.15 25.3008 47.475 21.9258 43.3L24.2508 40.5C34.6008 40.5 43.0008 32.675 43.0008 23C43.0008 20.375 42.3758 17.9 41.2508 15.675C49.4258 17.55 55.5008 24.45 55.5008 32.65Z" fill="#01533C"/>
<path d="M30.5 24.875H18C16.975 24.875 16.125 24.025 16.125 23C16.125 21.975 16.975 21.125 18 21.125H30.5C31.525 21.125 32.375 21.975 32.375 23C32.375 24.025 31.525 24.875 30.5 24.875Z" fill="#01533C"/>
</svg>
