
<svg width="15" height="15" viewBox="0 0 15 15" fill="none" xmlns="http://www.w3.org/2000/svg">
<path opacity="0.4" d="M10.9566 4.85625C10.9129 4.85 10.8691 4.85 10.8254 4.85625C9.85664 4.825 9.08789 4.03125 9.08789 3.05625C9.08789 2.0625 9.89414 1.25 10.8941 1.25C11.8879 1.25 12.7004 2.05625 12.7004 3.05625C12.6941 4.03125 11.9254 4.825 10.9566 4.85625Z" fill="#47586E"/>
<path opacity="0.4" d="M12.9938 9.1875C12.2938 9.65625 11.3125 9.83125 10.4063 9.7125C10.6438 9.2 10.7688 8.63126 10.775 8.03126C10.775 7.40626 10.6375 6.81251 10.375 6.29376C11.3 6.16876 12.2812 6.34375 12.9875 6.8125C13.975 7.4625 13.975 8.53125 12.9938 9.1875Z" fill="#47586E"/>
<path opacity="0.4" d="M4.025 4.85625C4.06875 4.85 4.1125 4.85 4.15625 4.85625C5.125 4.825 5.89375 4.03125 5.89375 3.05625C5.89375 2.0625 5.0875 1.25 4.0875 1.25C3.09375 1.25 2.28125 2.05625 2.28125 3.05625C2.2875 4.03125 3.05625 4.825 4.025 4.85625Z" fill="#47586E"/>
<path opacity="0.4" d="M4.09297 8.03113C4.09297 8.63738 4.22422 9.21238 4.46172 9.73113C3.58047 9.82488 2.66172 9.63738 1.98672 9.19363C0.999219 8.53738 0.999219 7.46863 1.98672 6.81238C2.65547 6.36238 3.59922 6.18113 4.48672 6.28113C4.23047 6.80613 4.09297 7.39988 4.09297 8.03113Z" fill="#47586E"/>
<path d="M7.575 9.91875C7.525 9.9125 7.46875 9.9125 7.4125 9.91875C6.2625 9.88125 5.34375 8.9375 5.34375 7.775C5.34375 6.5875 6.3 5.625 7.49375 5.625C8.68125 5.625 9.64375 6.5875 9.64375 7.775C9.64375 8.9375 8.73125 9.88125 7.575 9.91875Z" fill="#47586E"/>
<path d="M5.54375 11.2124C4.6 11.8437 4.6 12.8812 5.54375 13.5062C6.61875 14.2249 8.38125 14.2249 9.45625 13.5062C10.4 12.8749 10.4 11.8374 9.45625 11.2124C8.3875 10.4937 6.625 10.4937 5.54375 11.2124Z" fill="#47586E"/>
</svg>
