<svg width="24" height="24" viewBox="0 0 24 24" fill="none" xmlns="http://www.w3.org/2000/svg">
<path opacity="0.4" d="M20.3591 12.73C19.9891 12.73 19.6791 12.45 19.6391 12.08C19.3991 9.88001 18.2191 7.90001 16.3991 6.64001C16.0691 6.41001 15.9891 5.96001 16.2191 5.63001C16.4491 5.30001 16.8991 5.22001 17.2291 5.45001C19.3991 6.96001 20.7991 9.32001 21.0891 11.93C21.1291 12.33 20.8391 12.69 20.4391 12.73C20.4091 12.73 20.3891 12.73 20.3591 12.73Z" fill="#47586E"/>
<path opacity="0.4" d="M3.73931 12.78C3.71931 12.78 3.68931 12.78 3.66931 12.78C3.26931 12.74 2.97931 12.38 3.01931 11.98C3.28931 9.37002 4.66931 7.01002 6.81931 5.49002C7.13931 5.26002 7.59931 5.34002 7.82931 5.66002C8.05931 5.99002 7.97931 6.44002 7.65931 6.67002C5.85931 7.95002 4.68931 9.93002 4.46931 12.12C4.42931 12.5 4.10931 12.78 3.73931 12.78Z" fill="#47586E"/>
<path opacity="0.4" d="M15.9906 21.1C14.7606 21.69 13.4406 21.99 12.0606 21.99C10.6206 21.99 9.25059 21.67 7.97059 21.02C7.61059 20.85 7.47059 20.41 7.65059 20.05C7.82059 19.69 8.26059 19.55 8.62059 19.72C9.25059 20.04 9.92059 20.26 10.6006 20.39C11.5206 20.57 12.4606 20.58 13.3806 20.42C14.0606 20.3 14.7306 20.09 15.3506 19.79C15.7206 19.62 16.1606 19.76 16.3206 20.13C16.5006 20.49 16.3606 20.93 15.9906 21.1Z" fill="#47586E"/>
<path d="M12.0505 2.01001C10.5005 2.01001 9.23047 3.27001 9.23047 4.83001C9.23047 6.39001 10.4905 7.65001 12.0505 7.65001C13.6105 7.65001 14.8705 6.39001 14.8705 4.83001C14.8705 3.27001 13.6105 2.01001 12.0505 2.01001Z" fill="#47586E"/>
<path d="M5.05047 13.87C3.50047 13.87 2.23047 15.13 2.23047 16.69C2.23047 18.25 3.49047 19.51 5.05047 19.51C6.61047 19.51 7.87047 18.25 7.87047 16.69C7.87047 15.13 6.60047 13.87 5.05047 13.87Z" fill="#47586E"/>
<path d="M18.9509 13.87C17.4009 13.87 16.1309 15.13 16.1309 16.69C16.1309 18.25 17.3909 19.51 18.9509 19.51C20.5109 19.51 21.7709 18.25 21.7709 16.69C21.7709 15.13 20.5109 13.87 18.9509 13.87Z" fill="#47586E"/>
</svg>
