<svg width="16" height="16" viewBox="0 0 16 16" fill="none" xmlns="http://www.w3.org/2000/svg">
<path opacity="0.4" d="M8.42592 11.3437C8.98856 11.3437 9.44467 10.8876 9.44467 10.325C9.44467 9.76235 8.98856 9.30624 8.42592 9.30624C7.86328 9.30624 7.40717 9.76235 7.40717 10.325C7.40717 10.8876 7.86328 11.3437 8.42592 11.3437Z" fill="#292D32"/>
<path d="M11.3322 6.39999H5.51965C2.95715 6.39999 2.1759 7.18124 2.1759 9.74374V10.9062C2.1759 13.4687 2.95715 14.25 5.51965 14.25H11.3322C13.8947 14.25 14.6759 13.4687 14.6759 10.9062V9.74374C14.6759 7.18124 13.8947 6.39999 11.3322 6.39999ZM8.4259 12.2125C7.38215 12.2125 6.5384 11.3625 6.5384 10.325C6.5384 9.28749 7.38215 8.43749 8.4259 8.43749C9.46965 8.43749 10.3134 9.28749 10.3134 10.325C10.3134 11.3625 9.46965 12.2125 8.4259 12.2125Z" fill="#47586E"/>
<path opacity="0.4" d="M5.37592 6.40625V5.675C5.37592 3.84375 5.89467 2.625 8.42592 2.625C11.1322 2.625 11.4759 3.94375 11.4759 5.09375C11.4759 5.3375 11.6697 5.53125 11.9134 5.53125C12.1572 5.53125 12.3509 5.3375 12.3509 5.09375C12.3509 2.875 11.0322 1.75 8.42592 1.75C4.90717 1.75 4.50092 3.9875 4.50092 5.675V6.45625C4.76342 6.425 5.05717 6.40625 5.37592 6.40625Z" fill="#47586E"/>
</svg>
