<svg width="24" height="24" viewBox="0 0 24 24" fill="none" xmlns="http://www.w3.org/2000/svg">
<path opacity="0.4" d="M20.3601 12.73C19.9901 12.73 19.6801 12.45 19.6401 12.08C19.4001 9.88 18.2201 7.9 16.4001 6.64C16.0701 6.41 15.9901 5.96 16.2201 5.63C16.4501 5.3 16.9001 5.22 17.2301 5.45C19.4001 6.96 20.8001 9.32 21.0901 11.93C21.1301 12.33 20.8401 12.69 20.4401 12.73C20.4101 12.73 20.3901 12.73 20.3601 12.73Z" fill="#015E44"/>
<path opacity="0.4" d="M3.74029 12.78C3.72029 12.78 3.69029 12.78 3.67029 12.78C3.27029 12.74 2.98029 12.38 3.02029 11.98C3.29029 9.37 4.67029 7.01 6.82029 5.49C7.14029 5.26 7.60029 5.34 7.83029 5.66C8.06029 5.99 7.98029 6.44 7.66029 6.67C5.86029 7.95 4.69029 9.93 4.47029 12.12C4.43029 12.5 4.11029 12.78 3.74029 12.78Z" fill="#015E44"/>
<path opacity="0.4" d="M15.9896 21.1C14.7596 21.69 13.4396 21.99 12.0596 21.99C10.6196 21.99 9.24961 21.67 7.96961 21.02C7.60961 20.85 7.46961 20.41 7.64961 20.05C7.81961 19.69 8.25961 19.55 8.61961 19.72C9.24961 20.04 9.91961 20.26 10.5996 20.39C11.5196 20.57 12.4596 20.58 13.3796 20.42C14.0596 20.3 14.7296 20.09 15.3496 19.79C15.7196 19.62 16.1596 19.76 16.3196 20.13C16.4996 20.49 16.3596 20.93 15.9896 21.1Z" fill="#015E44"/>
<path d="M12.0505 2.00999C10.5005 2.00999 9.23047 3.26999 9.23047 4.82999C9.23047 6.38999 10.4905 7.64999 12.0505 7.64999C13.6105 7.64999 14.8705 6.38999 14.8705 4.82999C14.8705 3.26999 13.6105 2.00999 12.0505 2.00999Z" fill="#015E44"/>
<path d="M5.05047 13.87C3.50047 13.87 2.23047 15.13 2.23047 16.69C2.23047 18.25 3.49047 19.51 5.05047 19.51C6.61047 19.51 7.87047 18.25 7.87047 16.69C7.87047 15.13 6.60047 13.87 5.05047 13.87Z" fill="#015E44"/>
<path d="M18.9499 13.87C17.3999 13.87 16.1299 15.13 16.1299 16.69C16.1299 18.25 17.3899 19.51 18.9499 19.51C20.5099 19.51 21.7699 18.25 21.7699 16.69C21.7699 15.13 20.5099 13.87 18.9499 13.87Z" fill="#015E44"/>
</svg>
