<svg width="32" height="31" viewBox="0 0 32 31" fill="none" xmlns="http://www.w3.org/2000/svg">
<path d="M15.9887 27.6942C22.9414 27.6942 28.5777 22.0579 28.5777 15.1052C28.5777 8.15252 22.9414 2.51624 15.9887 2.51624C9.03594 2.51624 3.39966 8.15252 3.39966 15.1052C3.39966 22.0579 9.03594 27.6942 15.9887 27.6942Z" fill="white" stroke="#015E44" stroke-width="1.5" stroke-linecap="round" stroke-linejoin="round"/>
<path d="M10.9531 3.77515H12.212C9.75714 11.1271 9.75714 19.0834 12.212 26.4353H10.9531" stroke="#015E44" stroke-width="1.5" stroke-linecap="round" stroke-linejoin="round"/>
<path d="M19.7654 3.77515C22.2202 11.1271 22.2202 19.0834 19.7654 26.4353" stroke="#015E44" stroke-width="1.5" stroke-linecap="round" stroke-linejoin="round"/>
<path d="M4.65845 20.1409V18.882C12.0104 21.3368 19.9667 21.3368 27.3186 18.882V20.1409" stroke="#015E44" stroke-width="1.5" stroke-linecap="round" stroke-linejoin="round"/>
<path d="M4.65845 11.3286C12.0104 8.87371 19.9667 8.87371 27.3186 11.3286" stroke="#015E44" stroke-width="1.5" stroke-linecap="round" stroke-linejoin="round"/>
</svg>
