<svg width="89" height="112" viewBox="0 0 89 112" fill="none" xmlns="http://www.w3.org/2000/svg">
<path d="M28.6047 37.4098C28.6047 45.1418 22.3133 51.4098 14.5524 51.4098C6.79145 51.4098 0.5 45.1418 0.5 37.4098C0.5 29.6778 6.79145 23.4098 14.5524 23.4098C22.3133 23.4098 28.6047 29.6778 28.6047 37.4098Z" fill="#B0D0C7"/>
<path d="M0.5 67.9344C0.5 60.3292 6.68832 54.1639 14.322 54.1639C21.9557 54.1639 28.144 60.3292 28.144 67.9344V98.2295C28.144 105.835 21.9557 112 14.322 112C6.68832 112 0.5 105.835 0.5 98.2295V67.9344Z" fill="#B0D0C7"/>
<path d="M58.5524 14C58.5524 21.732 52.2609 28 44.5 28C36.7391 28 30.4476 21.732 30.4476 14C30.4476 6.26801 36.7391 0 44.5 0C52.2609 0 58.5524 6.26801 58.5524 14Z" fill="#B0D0C7"/>
<path d="M30.4476 46.8197C30.4476 39.2144 36.636 33.0492 44.2696 33.0492C51.9033 33.0492 58.0916 39.2144 58.0916 46.8197V98.2295C58.0916 105.835 51.9033 112 44.2696 112C36.636 112 30.4476 105.835 30.4476 98.2295V46.8197Z" fill="#B0D0C7"/>
<path d="M88.5 37.4098C88.5 45.1418 82.2085 51.4098 74.4476 51.4098C66.6867 51.4098 60.3953 45.1418 60.3953 37.4098C60.3953 29.6778 66.6867 23.4098 74.4476 23.4098C82.2085 23.4098 88.5 29.6778 88.5 37.4098Z" fill="#B0D0C7"/>
<path d="M60.856 67.9344C60.856 60.3292 67.0443 54.1639 74.678 54.1639C82.3117 54.1639 88.5 60.3292 88.5 67.9344V98.2295C88.5 105.835 82.3117 112 74.678 112C67.0443 112 60.856 105.835 60.856 98.2295V67.9344Z" fill="#B0D0C7"/>
</svg>
