<svg width="21" height="22" viewBox="0 0 21 22" fill="none" xmlns="http://www.w3.org/2000/svg">
<path d="M9.5 0.864258C14.468 0.864258 18.5 4.89626 18.5 9.86426C18.5 14.8323 14.468 18.8643 9.5 18.8643C4.532 18.8643 0.5 14.8323 0.5 9.86426C0.5 4.89626 4.532 0.864258 9.5 0.864258ZM9.5 16.8643C13.3675 16.8643 16.5 13.7318 16.5 9.86426C16.5 5.99676 13.3675 2.86426 9.5 2.86426C5.6325 2.86426 2.5 5.99676 2.5 9.86426C2.5 13.7318 5.6325 16.8643 9.5 16.8643ZM17.9853 16.9354L20.8137 19.7638L19.3995 21.178L16.5711 18.3496L17.9853 16.9354Z" fill="white"/>
</svg>
