<svg width="32" height="32" viewBox="0 0 32 32" fill="none" xmlns="http://www.w3.org/2000/svg">
<path opacity="0.4" d="M20.666 17.5333H17.7727C15.3993 17.5333 13.466 15.6133 13.466 13.2266V10.3333C13.466 9.78659 13.026 9.33325 12.466 9.33325H8.23935C5.15935 9.33325 2.66602 11.3333 2.66602 14.9066V23.7599C2.66602 27.3333 5.15935 29.3333 8.23935 29.3333H16.0927C19.1727 29.3333 21.666 27.3333 21.666 23.7599V18.5333C21.666 17.9733 21.2127 17.5333 20.666 17.5333Z" fill="#A3ADBB"/>
<path d="M23.759 2.66675H21.1324H19.679H15.9057C12.8924 2.66675 10.4524 4.58675 10.3457 8.01342C10.4257 8.01342 10.4924 8.00008 10.5724 8.00008H14.3457H15.799H18.4257C21.5057 8.00008 23.999 10.0001 23.999 13.5734V16.2001V19.8134V22.4401C23.999 22.5201 23.9857 22.5867 23.9857 22.6534C26.959 22.5601 29.3324 20.5867 29.3324 17.1067V14.4801V10.8667V8.24008C29.3324 4.66675 26.839 2.66675 23.759 2.66675Z" fill="#A3ADBB"/>
<path d="M15.9735 9.53325C15.5602 9.11991 14.8535 9.39991 14.8535 9.97324V13.4666C14.8535 14.9332 16.0935 16.1332 17.6135 16.1332C18.5602 16.1466 19.8802 16.1466 21.0135 16.1466C21.5868 16.1466 21.8802 15.4799 21.4802 15.0799C20.0268 13.6266 17.4402 11.0266 15.9735 9.53325Z" fill="#A3ADBB"/>
</svg>
