<svg width="32" height="32" viewBox="0 0 32 32" fill="none" xmlns="http://www.w3.org/2000/svg">
<path opacity="0.4" d="M23.3734 10.3601C23.28 10.3468 23.1867 10.3468 23.0934 10.3601C21.0267 10.2934 19.3867 8.60008 19.3867 6.52008C19.3867 4.40008 21.1067 2.66675 23.2401 2.66675C25.3601 2.66675 27.0934 4.38675 27.0934 6.52008C27.0801 8.60008 25.44 10.2934 23.3734 10.3601Z" fill="#A3ADBB"/>
<path opacity="0.4" d="M27.7195 19.6C26.2261 20.6 24.1328 20.9734 22.1995 20.72C22.7061 19.6267 22.9728 18.4134 22.9862 17.1334C22.9862 15.8 22.6928 14.5334 22.1328 13.4267C24.1061 13.1601 26.1995 13.5334 27.7061 14.5334C29.8128 15.92 29.8128 18.2 27.7195 19.6Z" fill="#A3ADBB"/>
<path opacity="0.4" d="M8.58718 10.3601C8.68052 10.3468 8.77385 10.3468 8.86719 10.3601C10.9339 10.2934 12.5739 8.60008 12.5739 6.52008C12.5739 4.40008 10.8539 2.66675 8.72052 2.66675C6.60052 2.66675 4.86719 4.38675 4.86719 6.52008C4.88052 8.60008 6.52052 10.2934 8.58718 10.3601Z" fill="#A3ADBB"/>
<path opacity="0.4" d="M8.73349 17.1334C8.73349 18.4267 9.01349 19.6534 9.52015 20.7601C7.64015 20.9601 5.68016 20.5601 4.24016 19.6134C2.13349 18.2134 2.13349 15.9334 4.24016 14.5334C5.66682 13.5734 7.68016 13.1867 9.57349 13.4001C9.02682 14.5201 8.73349 15.7867 8.73349 17.1334Z" fill="#A3ADBB"/>
<path d="M16.1604 21.16C16.0537 21.1467 15.9337 21.1467 15.8137 21.16C13.3604 21.08 11.4004 19.0667 11.4004 16.5867C11.4004 14.0533 13.4404 12 15.9871 12C18.5204 12 20.5737 14.0533 20.5737 16.5867C20.5737 19.0667 18.6271 21.08 16.1604 21.16Z" fill="#A3ADBB"/>
<path d="M11.8264 23.92C9.81307 25.2667 9.81307 27.48 11.8264 28.8134C14.1197 30.3467 17.8797 30.3467 20.1731 28.8134C22.1864 27.4667 22.1864 25.2534 20.1731 23.92C17.8931 22.3867 14.1331 22.3867 11.8264 23.92Z" fill="#A3ADBB"/>
</svg>
