<svg width="41" height="41" viewBox="0 0 41 41" fill="none" xmlns="http://www.w3.org/2000/svg">
<path opacity="0.4" d="M27.9 3.83325H13.9333C7.86667 3.83325 4.25 7.44992 4.25 13.5166V27.4666C4.25 33.5499 7.86667 37.1666 13.9333 37.1666H27.8833C33.95 37.1666 37.5667 33.5499 37.5667 27.4833V13.5166C37.5833 7.44992 33.9667 3.83325 27.9 3.83325Z" fill="#01684B"/>
<path d="M27.5833 19.2499H22.1667V13.8333C22.1667 13.1499 21.6 12.5833 20.9167 12.5833C20.2333 12.5833 19.6667 13.1499 19.6667 13.8333V19.2499H14.25C13.5667 19.2499 13 19.8166 13 20.4999C13 21.1833 13.5667 21.7499 14.25 21.7499H19.6667V27.1666C19.6667 27.8499 20.2333 28.4166 20.9167 28.4166C21.6 28.4166 22.1667 27.8499 22.1667 27.1666V21.7499H27.5833C28.2667 21.7499 28.8333 21.1833 28.8333 20.4999C28.8333 19.8166 28.2667 19.2499 27.5833 19.2499Z" fill="#01684B"/>
</svg>
