<svg width="295" height="332" viewBox="0 0 295 332" fill="none" xmlns="http://www.w3.org/2000/svg">
<rect x="102.764" y="1.95043" width="204.869" height="270.936" rx="6.5" transform="rotate(21.8449 102.764 1.95043)" fill="white" fill-opacity="0.2"/>
<rect x="102.764" y="1.95043" width="204.869" height="270.936" rx="6.5" transform="rotate(21.8449 102.764 1.95043)" stroke="white" stroke-width="3"/>
<path opacity="0.4" d="M163.757 149.418L147.572 142.929C140.533 140.108 134.655 142.622 131.833 149.661L125.345 165.846C122.523 172.885 125.037 178.763 132.076 181.585L148.261 188.073C155.3 190.895 161.178 188.381 164 181.342L170.488 165.157C173.31 158.118 170.796 152.24 163.757 149.418Z" fill="white"/>
<path d="M149.967 157.559L142.866 175.272C142.587 175.968 141.705 176.153 141.175 175.626C139.238 173.683 136.555 171.53 134.536 170.406L134.185 170.22C133.067 169.593 132.542 168.103 133.023 166.904L138.992 152.014C139.581 150.545 141.222 149.923 142.645 150.628C144.984 151.791 148.097 154.385 149.828 156.56C150.064 156.812 150.106 157.211 149.967 157.559Z" fill="white"/>
<path d="M163.573 162.138L157.705 176.776C157.224 177.975 155.816 178.69 154.574 178.372L154.152 178.248C151.928 177.693 148.528 177.385 145.793 177.433C145.046 177.448 144.536 176.705 144.815 176.008L151.908 158.315C152.048 157.967 152.354 157.708 152.733 157.658C155.48 157.3 159.429 157.581 161.893 158.322L161.971 158.353C163.452 158.969 164.17 160.649 163.573 162.138Z" fill="white"/>
</svg>
