<svg width="32" height="32" viewBox="0 0 32 32" fill="none" xmlns="http://www.w3.org/2000/svg">
<path opacity="0.4" d="M23.9734 14.3867V19.72C23.9734 20.0667 23.96 20.4 23.92 20.72C23.6133 24.32 21.4933 26.1066 17.5867 26.1066H17.0534C16.72 26.1066 16.4 26.2667 16.2 26.5333L14.6 28.6667C13.8934 29.6133 12.7467 29.6133 12.04 28.6667L10.44 26.5333C10.2667 26.3067 9.88001 26.1066 9.58668 26.1066H9.05335C4.80002 26.1066 2.66667 25.0533 2.66667 19.72V14.3867C2.66667 10.48 4.46668 8.36001 8.05335 8.05334C8.37335 8.01334 8.70668 8 9.05335 8H17.5867C21.84 8 23.9734 10.1333 23.9734 14.3867Z" fill="#B2BBC6"/>
<path d="M13.3203 18.6667C12.5736 18.6667 11.987 18.0667 11.987 17.3333C11.987 16.6 12.587 16 13.3203 16C14.0536 16 14.6536 16.6 14.6536 17.3333C14.6536 18.0667 14.067 18.6667 13.3203 18.6667Z" fill="#B2BBC6"/>
<path d="M17.987 18.6667C17.2403 18.6667 16.6537 18.0667 16.6537 17.3333C16.6537 16.6 17.2537 16 17.987 16C18.7203 16 19.3203 16.6 19.3203 17.3333C19.3203 18.0667 18.7203 18.6667 17.987 18.6667Z" fill="#B2BBC6"/>
<path d="M8.66666 18.6667C7.91999 18.6667 7.33333 18.0667 7.33333 17.3333C7.33333 16.6 7.93333 16 8.66666 16C9.39999 16 9.99999 16.6 9.99999 17.3333C9.99999 18.0667 9.39999 18.6667 8.66666 18.6667Z" fill="#B2BBC6"/>
<path d="M29.3067 9.05343V14.3868C29.3067 18.3068 27.5067 20.4134 23.92 20.7201C23.96 20.4001 23.9733 20.0668 23.9733 19.7201V14.3868C23.9733 10.1334 21.84 8.00008 17.5867 8.00008H9.05334C8.70668 8.00008 8.37334 8.01343 8.05334 8.05343C8.36001 4.46676 10.48 2.66675 14.3867 2.66675H22.92C27.1733 2.66675 29.3067 4.80009 29.3067 9.05343Z" fill="#B2BBC6"/>
</svg>
