<svg width="221" height="221" viewBox="0 0 221 221" fill="none" xmlns="http://www.w3.org/2000/svg">
<path opacity="0.5" d="M29.562 108.042C30.7616 155.144 69.9178 192.355 117.02 191.155C164.122 189.956 201.333 150.8 200.133 103.698C198.933 56.5958 159.777 19.3846 112.675 20.5843C65.5734 21.784 28.3623 60.9402 29.562 108.042Z" fill="white"/>
<path d="M22.825 196.25C22.7838 194.634 23.3711 193.002 24.5084 191.805L40.7811 174.682C43.1433 172.196 47.0934 172.095 49.6688 174.455C52.1544 176.817 52.2551 180.768 49.8952 183.343L33.6225 200.466C31.2603 202.952 27.3102 203.053 24.7348 200.693C23.5357 199.466 22.8661 197.866 22.825 196.25Z" fill="white"/>
</svg>
