<svg width="221" height="221" viewBox="0 0 221 221" fill="none" xmlns="http://www.w3.org/2000/svg">
<path opacity="0.5" d="M191.383 108.042C190.184 155.144 151.027 192.355 103.926 191.155C56.8236 189.956 19.6125 150.8 20.8122 103.698C22.0118 56.5958 61.168 19.3846 108.27 20.5843C155.372 21.784 192.583 60.9402 191.383 108.042Z" fill="white"/>
<path d="M198.12 196.25C198.161 194.634 197.574 193.002 196.437 191.805L180.164 174.682C177.802 172.196 173.852 172.095 171.277 174.455C168.791 176.817 168.69 180.768 171.05 183.343L187.323 200.466C189.685 202.952 193.635 203.053 196.211 200.693C197.41 199.466 198.079 197.866 198.12 196.25Z" fill="white"/>
</svg>
