<svg width="16" height="16" viewBox="0 0 16 16" fill="none" xmlns="http://www.w3.org/2000/svg">
<path d="M7.15861 1.30996C7.55219 0.697195 8.44781 0.697195 8.84139 1.30996L10.5168 3.91833C10.6522 4.12917 10.8618 4.28148 11.1042 4.34512L14.1026 5.13245C14.807 5.31742 15.0838 6.1692 14.6226 6.73287L12.6596 9.13227C12.5009 9.32622 12.4209 9.57266 12.4352 9.82282L12.613 12.9178C12.6548 13.6449 11.9302 14.1713 11.2516 13.9069L8.36304 12.7815C8.12956 12.6905 7.87044 12.6905 7.63696 12.7815L4.74839 13.9069C4.06981 14.1713 3.34523 13.6449 3.38699 12.9178L3.56476 9.82282C3.57912 9.57266 3.49905 9.32622 3.34038 9.13227L1.37739 6.73287C0.916239 6.1692 1.193 5.31742 1.8974 5.13245L4.89582 4.34512C5.13819 4.28148 5.34782 4.12917 5.48324 3.91833L7.15861 1.30996Z" fill="#47586E"/>
</svg>
