<svg width="72" height="52" viewBox="0 0 72 52" fill="none" xmlns="http://www.w3.org/2000/svg">
<path d="M36.0934 21.9333C36.04 21.9333 35.96 21.9333 35.8934 21.9333C34.4934 21.88 33.3867 20.7467 33.3867 19.3333C33.3867 17.8933 34.5467 16.7333 35.9867 16.7333C37.4267 16.7333 38.5867 17.9067 38.5867 19.3333C38.6001 20.7467 37.4934 21.8933 36.0934 21.9333Z" fill="#A3ADBB"/>
<path d="M32.3339 25.9467C30.5606 27.1333 30.5606 29.0667 32.3339 30.2533C34.3472 31.6 37.6539 31.6 39.6672 30.2533C41.4406 29.0667 41.4406 27.1333 39.6672 25.9467C37.6539 24.6133 34.3606 24.6133 32.3339 25.9467Z" fill="#B2BBC6"/>
<path opacity="0.4" d="M44 12.6667H28C25.7867 12.6667 24 14.44 24 16.6267V31.1733C24 33.36 25.7867 35.1333 28 35.1333H29.0133C30.08 35.1333 31.0933 35.5467 31.84 36.2933L34.12 38.5467C35.16 39.5733 36.8533 39.5733 37.8933 38.5467L40.1733 36.2933C40.92 35.5467 41.9467 35.1333 43 35.1333H44C46.2133 35.1333 48 33.36 48 31.1733V16.6267C48 14.44 46.2133 12.6667 44 12.6667ZM36 16.7333C37.44 16.7333 38.6 17.9067 38.6 19.3333C38.6 20.7467 37.48 21.88 36.0933 21.9333C36.04 21.9333 35.96 21.9333 35.8933 21.9333C34.4933 21.88 33.3867 20.7467 33.3867 19.3333C33.4 17.9067 34.56 16.7333 36 16.7333ZM39.6667 30.2533C37.6533 31.6 34.3467 31.6 32.3333 30.2533C30.56 29.08 30.56 27.1333 32.3333 25.9467C34.36 24.6 37.6667 24.6 39.6667 25.9467C41.44 27.1333 41.44 29.0667 39.6667 30.2533Z" fill="#B2BBC6"/>
</svg>
