<svg width="60" height="60" viewBox="0 0 60 60" fill="none" xmlns="http://www.w3.org/2000/svg">
<rect width="60" height="60" rx="30" fill="#F5F7F9"/>
<path opacity="0.4" d="M30 12.5C25.415 12.5 21.6875 16.2275 21.6875 20.8125C21.6875 25.31 25.205 28.95 29.79 29.1075C29.93 29.09 30.07 29.09 30.175 29.1075C30.21 29.1075 30.2275 29.1075 30.2625 29.1075C30.28 29.1075 30.28 29.1075 30.2975 29.1075C34.7775 28.95 38.295 25.31 38.3125 20.8125C38.3125 16.2275 34.585 12.5 30 12.5Z" fill="#292D32"/>
<path d="M38.8897 33.7625C34.0072 30.5075 26.0447 30.5075 21.1272 33.7625C18.9047 35.25 17.6797 37.2625 17.6797 39.415C17.6797 41.5675 18.9047 43.5625 21.1097 45.0325C23.5597 46.6775 26.7797 47.5 29.9997 47.5C33.2197 47.5 36.4397 46.6775 38.8897 45.0325C41.0947 43.545 42.3197 41.55 42.3197 39.38C42.3022 37.2275 41.0947 35.2325 38.8897 33.7625Z" fill="#292D32"/>
</svg>
