<svg width="76" height="51" viewBox="0 0 76 51" fill="none" xmlns="http://www.w3.org/2000/svg">
<path d="M9.02147 18.7064C9.02147 21.0317 7.01747 22.9168 4.5454 22.9168C2.07334 22.9168 0.0693359 21.0317 0.0693359 18.7064C0.0693359 16.381 2.07334 14.4959 4.5454 14.4959C7.01747 14.4959 9.02147 16.381 9.02147 18.7064Z" fill="#FA003F"/>
<path d="M0.54078 28.4919C0.54078 26.173 2.43931 24.2931 4.78126 24.2931C7.12322 24.2931 9.02175 26.173 9.02175 28.4919V38.7556C9.02175 41.0745 7.12322 42.9544 4.78126 42.9544C2.43931 42.9544 0.54078 41.0745 0.54078 38.7556V28.4919Z" fill="#FA003F"/>
<path d="M19.3871 5.16531C19.3871 7.74189 17.2776 9.83062 14.6754 9.83062C12.0732 9.83062 9.96377 7.74189 9.96377 5.16531C9.96377 2.58873 12.0732 0.5 14.6754 0.5C17.2776 0.5 19.3871 2.58873 19.3871 5.16531Z" fill="#01684B"/>
<path d="M10.4344 14.9624C10.4344 12.6435 12.3329 10.7636 14.6749 10.7636C17.0168 10.7636 18.9153 12.6435 18.9153 14.9624V38.7555C18.9153 41.0744 17.0168 42.9543 14.6749 42.9543C12.3329 42.9543 10.4344 41.0744 10.4344 38.7555V14.9624Z" fill="#01684B"/>
<path d="M29.7522 18.928C29.7522 21.3757 27.7482 23.36 25.2762 23.36C22.8041 23.36 20.8001 21.3757 20.8001 18.928C20.8001 16.4802 22.8041 14.4959 25.2762 14.4959C27.7482 14.4959 29.7522 16.4802 29.7522 18.928Z" fill="#275DAD"/>
<path d="M21.2717 28.4919C21.2717 26.173 23.1702 24.2931 25.5122 24.2931C27.8541 24.2931 29.7527 26.173 29.7527 28.4919V38.7556C29.7527 41.0745 27.8541 42.9544 25.5122 42.9544C23.1702 42.9544 21.2717 41.0745 21.2717 38.7556V28.4919Z" fill="#275DAD"/>
<path d="M29.7521 50.5C25.5643 48.1042 20.3753 46.6867 14.756 46.6867C9.88385 46.6867 5.33516 47.7523 1.48207 49.5973C5.08245 46.6291 9.86207 44.8205 15.1066 44.8205C20.8636 44.8205 26.0604 46.9998 29.7521 50.5Z" fill="url(#paint0_linear_1065_1527)"/>
<path d="M47.6121 42.7816H40.1316C37.7568 42.7816 36.0846 42.3632 35.1149 41.5265C34.165 40.6694 33.69 39.1694 33.69 37.0266V20.9862H47.6121V24.782H37.8162V29.8941H44.6733L44.3765 33.69H37.8162V36.7205C37.8162 37.5776 38.0042 38.1695 38.3802 38.496C38.7562 38.8225 39.4389 38.9858 40.4284 38.9858H47.6121V42.7816Z" fill="url(#paint1_linear_1065_1527)"/>
<path d="M60.895 42.7816H51.6631C50.6538 42.7816 49.8721 42.5673 49.318 42.1388C48.7837 41.6898 48.5165 41.0673 48.5165 40.2715C48.5165 39.4756 48.8431 38.6388 49.4961 37.7613L56.5611 28.7309H49.4961V25.3024H61.1919V28.3329L52.7614 39.3531H60.895V42.7816Z" fill="url(#paint2_linear_1065_1527)"/>
<path d="M75.872 34.9757H65.9871C65.9871 36.5675 66.2246 37.7307 66.6995 38.4654C67.1943 39.2 68.1738 39.5674 69.6383 39.5674C70.5882 39.5674 71.2907 39.2613 71.7459 38.649C72.201 38.0164 72.4286 37.4144 72.4286 36.843H75.9017C75.9017 39.0266 75.3278 40.6286 74.18 41.649C73.052 42.6694 71.548 43.1795 69.668 43.1795C67.8077 43.1795 66.3631 42.904 65.334 42.353C63.2165 41.2306 62.1578 38.2511 62.1578 33.4145C62.1578 30.537 62.7614 28.435 63.9685 27.1085C65.1757 25.7616 67.0161 25.0881 69.4899 25.0881C73.7842 25.0881 75.9314 27.5473 75.9314 32.4655C75.9314 32.9961 75.9116 33.8328 75.872 34.9757ZM66.0761 32.2512H72.4286C72.4286 30.9043 72.1813 29.9247 71.6865 29.3125C71.1918 28.7003 70.4299 28.3942 69.4008 28.3942C68.3915 28.3942 67.5801 28.7105 66.9667 29.3431C66.373 29.9554 66.0761 30.9247 66.0761 32.2512Z" fill="url(#paint3_linear_1065_1527)"/>
<defs>
<linearGradient id="paint0_linear_1065_1527" x1="38.0004" y1="0.5" x2="38.0004" y2="50.5" gradientUnits="userSpaceOnUse">
<stop stop-color="#383F39"/>
<stop offset="0.716667" stop-color="#090B09"/>
</linearGradient>
<linearGradient id="paint1_linear_1065_1527" x1="38.0004" y1="0.5" x2="38.0004" y2="50.5" gradientUnits="userSpaceOnUse">
<stop stop-color="#383F39"/>
<stop offset="0.716667" stop-color="#090B09"/>
</linearGradient>
<linearGradient id="paint2_linear_1065_1527" x1="38.0004" y1="0.5" x2="38.0004" y2="50.5" gradientUnits="userSpaceOnUse">
<stop stop-color="#383F39"/>
<stop offset="0.716667" stop-color="#090B09"/>
</linearGradient>
<linearGradient id="paint3_linear_1065_1527" x1="38.0004" y1="0.5" x2="38.0004" y2="50.5" gradientUnits="userSpaceOnUse">
<stop stop-color="#383F39"/>
<stop offset="0.716667" stop-color="#090B09"/>
</linearGradient>
</defs>
</svg>
