<svg width="32" height="32" viewBox="0 0 32 32" fill="none" xmlns="http://www.w3.org/2000/svg">
<path opacity="0.4" d="M16 29.3333C23.3638 29.3333 29.3333 23.3638 29.3333 16C29.3333 8.63619 23.3638 2.66666 16 2.66666C8.63621 2.66666 2.66667 8.63619 2.66667 16C2.66667 23.3638 8.63621 29.3333 16 29.3333Z" fill="#A3ADBB"/>
<path d="M21.3333 15H17V10.6667C17 10.12 16.5467 9.66666 16 9.66666C15.4533 9.66666 15 10.12 15 10.6667V15H10.6667C10.12 15 9.66667 15.4533 9.66667 16C9.66667 16.5467 10.12 17 10.6667 17H15V21.3333C15 21.88 15.4533 22.3333 16 22.3333C16.5467 22.3333 17 21.88 17 21.3333V17H21.3333C21.88 17 22.3333 16.5467 22.3333 16C22.3333 15.4533 21.88 15 21.3333 15Z" fill="#A3ADBB"/>
</svg>
