<svg width="32" height="32" viewBox="0 0 32 32" fill="none" xmlns="http://www.w3.org/2000/svg">
<path d="M22.6667 6.61342V16.1067C22.6667 18.7601 20.7867 19.7868 18.48 18.4001L16.72 17.3334C16.32 17.0934 15.68 17.0934 15.28 17.3334L13.52 18.4001C11.2133 19.7868 9.33334 18.7601 9.33334 16.1067V6.65341C9.34668 4.00008 10.68 2.66675 13.3333 2.66675H18.6667C21.3067 2.66675 22.64 3.98675 22.6667 6.61342Z" fill="#015E44"/>
<path opacity="0.4" d="M29.3333 15.8666V19.9066C29.3333 26.6399 26.6667 29.3333 20 29.3333H12C5.33332 29.3333 2.66666 26.6399 2.66666 19.9066V15.8666C2.66666 10.2133 4.54666 7.41328 9.09332 6.65328H9.33332V16.1066C9.33332 18.7599 11.2133 19.7866 13.52 18.3999L15.28 17.3333C15.68 17.0933 16.32 17.0933 16.72 17.3333L18.48 18.3999C20.7867 19.7866 22.6667 18.7599 22.6667 16.1066V6.61328C27.3867 7.30661 29.3333 10.1199 29.3333 15.8666Z" fill="#015E44"/>
</svg>