<svg width="32" height="32" viewBox="0 0 32 32" fill="none" xmlns="http://www.w3.org/2000/svg">
<path opacity="0.4" d="M16 29.2001C23.3638 29.2001 29.3333 23.2306 29.3333 15.8668C29.3333 8.50298 23.3638 2.53345 16 2.53345C8.63619 2.53345 2.66666 8.50298 2.66666 15.8668C2.66666 23.2306 8.63619 29.2001 16 29.2001Z" fill="#015E44"/>
<path d="M19.0133 16L17 15.2933V10.7733H17.48C18.56 10.7733 19.44 11.72 19.44 12.88C19.44 13.4267 19.8933 13.88 20.44 13.88C20.9867 13.88 21.44 13.4267 21.44 12.88C21.44 10.6133 19.6667 8.77333 17.48 8.77333H17V8C17 7.45333 16.5467 7 16 7C15.4533 7 15 7.45333 15 8V8.77333H14.1333C12.16 8.77333 10.5467 10.44 10.5467 12.48C10.5467 14.8667 11.9333 15.6267 12.9867 16L15 16.7067V21.2133H14.52C13.44 21.2133 12.56 20.2667 12.56 19.1067C12.56 18.56 12.1067 18.1067 11.56 18.1067C11.0133 18.1067 10.56 18.56 10.56 19.1067C10.56 21.3733 12.3333 23.2133 14.52 23.2133H15V24C15 24.5467 15.4533 25 16 25C16.5467 25 17 24.5467 17 24V23.2267H17.8667C19.84 23.2267 21.4533 21.56 21.4533 19.52C21.44 17.12 20.0533 16.36 19.0133 16ZM13.6533 14.12C12.9733 13.88 12.56 13.6533 12.56 12.4933C12.56 11.5467 13.2667 10.7867 14.1467 10.7867H15.0133V14.6L13.6533 14.12ZM17.8667 21.2267H17V17.4133L18.3467 17.88C19.0267 18.12 19.44 18.3467 19.44 19.5067C19.44 20.4533 18.7333 21.2267 17.8667 21.2267Z" fill="#015E44"/>
</svg>
