<svg width="32" height="32" viewBox="0 0 32 32" fill="none" xmlns="http://www.w3.org/2000/svg">
<path opacity="0.4" d="M2.66667 17.1733V14.8267C2.66667 13.44 3.80001 12.2933 5.20001 12.2933C7.61334 12.2933 8.60001 10.5867 7.38667 8.49333C6.69334 7.29333 7.10667 5.73333 8.32 5.04L10.6267 3.72C11.68 3.09333 13.04 3.46666 13.6667 4.52L13.8133 4.77333C15.0133 6.86666 16.9867 6.86666 18.2 4.77333L18.3467 4.52C18.9733 3.46666 20.3333 3.09333 21.3867 3.72L23.6933 5.04C24.9067 5.73333 25.32 7.29333 24.6267 8.49333C23.4133 10.5867 24.4 12.2933 26.8133 12.2933C28.2 12.2933 29.3467 13.4267 29.3467 14.8267V17.1733C29.3467 18.56 28.2133 19.7067 26.8133 19.7067C24.4 19.7067 23.4133 21.4133 24.6267 23.5067C25.32 24.72 24.9067 26.2667 23.6933 26.96L21.3867 28.28C20.3333 28.9067 18.9733 28.5333 18.3467 27.48L18.2 27.2267C17 25.1333 15.0267 25.1333 13.8133 27.2267L13.6667 27.48C13.04 28.5333 11.68 28.9067 10.6267 28.28L8.32 26.96C7.10667 26.2667 6.69334 24.7067 7.38667 23.5067C8.60001 21.4133 7.61334 19.7067 5.20001 19.7067C3.80001 19.7067 2.66667 18.56 2.66667 17.1733Z" fill="#A3ADBB"/>
<path d="M16 20.3333C18.3932 20.3333 20.3333 18.3932 20.3333 16C20.3333 13.6068 18.3932 11.6667 16 11.6667C13.6068 11.6667 11.6667 13.6068 11.6667 16C11.6667 18.3932 13.6068 20.3333 16 20.3333Z" fill="#A3ADBB"/>
</svg>
