<svg width="198" height="59" viewBox="0 0 198 59" fill="none" xmlns="http://www.w3.org/2000/svg">
<path d="M22.3845 21.3291C22.3845 24.0534 20.0598 26.2618 17.1922 26.2618C14.3246 26.2618 12 24.0534 12 21.3291C12 18.6049 14.3246 16.3965 17.1922 16.3965C20.0598 16.3965 22.3845 18.6049 22.3845 21.3291Z" fill="#FA003F"/>
<path d="M12.5469 32.7931C12.5469 30.0764 14.7492 27.8741 17.4658 27.8741C20.1825 27.8741 22.3848 30.0764 22.3848 32.7931V44.8172C22.3848 47.5339 20.1825 49.7362 17.4658 49.7362C14.7492 49.7362 12.5469 47.5339 12.5469 44.8172V32.7931Z" fill="#FA003F"/>
<path d="M34.4086 5.46551C34.4086 8.48403 31.9616 10.931 28.9431 10.931C25.9245 10.931 23.4775 8.48403 23.4775 5.46551C23.4775 2.44699 25.9245 0 28.9431 0C31.9616 0 34.4086 2.44699 34.4086 5.46551Z" fill="#01684B"/>
<path d="M24.0234 16.943C24.0234 14.2263 26.2257 12.024 28.9424 12.024C31.6591 12.024 33.8614 14.2263 33.8614 16.943V44.8171C33.8614 47.5338 31.6591 49.7361 28.9424 49.7361C26.2257 49.7361 24.0234 47.5338 24.0234 44.8171V16.943Z" fill="#01684B"/>
<path d="M46.4321 21.5888C46.4321 24.4563 44.1075 26.781 41.2399 26.781C38.3723 26.781 36.0477 24.4563 36.0477 21.5888C36.0477 18.7212 38.3723 16.3965 41.2399 16.3965C44.1075 16.3965 46.4321 18.7212 46.4321 21.5888Z" fill="#275DAD"/>
<path d="M36.5947 32.7931C36.5947 30.0764 38.797 27.8741 41.5137 27.8741C44.2304 27.8741 46.4326 30.0764 46.4326 32.7931V44.8172C46.4326 47.5339 44.2304 49.7362 41.5137 49.7362C38.797 49.7362 36.5947 47.5339 36.5947 44.8172V32.7931Z" fill="#275DAD"/>
<path d="M46.432 58.5761C41.5742 55.7694 35.5549 54.1087 29.0365 54.1087C23.3848 54.1087 18.1084 55.3571 13.6388 57.5185C17.8152 54.0413 23.3596 51.9224 29.4432 51.9224C36.1213 51.9224 42.1496 54.4756 46.432 58.5761Z" fill="url(#paint0_linear_160_4719)"/>
<path d="M67.1496 49.5338H58.4722C55.7175 49.5338 53.7777 49.0437 52.6528 48.0634C51.5509 47.0593 51 45.3021 51 42.7917V24H67.1496V28.4469H55.7863V34.4359H63.7406L63.3963 38.8828H55.7863V42.4331C55.7863 43.4372 56.0044 44.1306 56.4406 44.5131C56.8768 44.8956 57.6687 45.0869 58.8165 45.0869H67.1496V49.5338Z" fill="url(#paint1_linear_160_4719)"/>
<path d="M82.5578 49.5338H71.8488C70.678 49.5338 69.7712 49.2828 69.1285 48.7807C68.5087 48.2547 68.1988 47.5255 68.1988 46.5931C68.1988 45.6607 68.5775 44.6805 69.3351 43.6524L77.5304 33.0731H69.3351V29.0566H82.9021V32.6069L73.1228 45.5172H82.5578V49.5338Z" fill="url(#paint2_linear_160_4719)"/>
<path d="M99.9311 40.389H88.4646C88.4646 42.2538 88.7401 43.6166 89.291 44.4772C89.8649 45.3379 91.0012 45.7683 92.7 45.7683C93.8019 45.7683 94.6168 45.4097 95.1448 44.6924C95.6728 43.9513 95.9368 43.246 95.9368 42.5766H99.9656C99.9656 45.1347 99.2998 47.0115 97.9684 48.2069C96.6599 49.4023 94.9152 50 92.7344 50C90.5765 50 88.9007 49.6772 87.707 49.0317C85.2507 47.7168 84.0226 44.2262 84.0226 38.56C84.0226 35.189 84.7227 32.7264 86.1231 31.1724C87.5234 29.5945 89.6583 28.8055 92.5278 28.8055C97.5093 28.8055 100 31.6864 100 37.4483C100 38.0699 99.977 39.0501 99.9311 40.389ZM88.5679 37.1972H95.9368C95.9368 35.6193 95.6498 34.4717 95.0759 33.7545C94.502 33.0372 93.6182 32.6786 92.4245 32.6786C91.2537 32.6786 90.3125 33.0492 89.6009 33.7903C88.9122 34.5076 88.5679 35.6432 88.5679 37.1972Z" fill="url(#paint3_linear_160_4719)"/>
<defs>
<linearGradient id="paint0_linear_160_4719" x1="56" y1="0" x2="56" y2="58.5761" gradientUnits="userSpaceOnUse">
<stop stop-color="#383F39"/>
<stop offset="0.716667" stop-color="#090B09"/>
</linearGradient>
<linearGradient id="paint1_linear_160_4719" x1="56" y1="0" x2="56" y2="58.5761" gradientUnits="userSpaceOnUse">
<stop stop-color="#383F39"/>
<stop offset="0.716667" stop-color="#090B09"/>
</linearGradient>
<linearGradient id="paint2_linear_160_4719" x1="56" y1="0" x2="56" y2="58.5761" gradientUnits="userSpaceOnUse">
<stop stop-color="#383F39"/>
<stop offset="0.716667" stop-color="#090B09"/>
</linearGradient>
<linearGradient id="paint3_linear_160_4719" x1="56" y1="0" x2="56" y2="58.5761" gradientUnits="userSpaceOnUse">
<stop stop-color="#383F39"/>
<stop offset="0.716667" stop-color="#090B09"/>
</linearGradient>
</defs>
</svg>
