<svg width="30" height="50" viewBox="0 0 30 50" fill="none" xmlns="http://www.w3.org/2000/svg">
<path d="M9.00989 18.2543C9.00989 20.5245 7.05292 22.3648 4.63887 22.3648C2.22482 22.3648 0.267853 20.5245 0.267853 18.2543C0.267853 15.9841 2.22482 14.1438 4.63887 14.1438C7.05292 14.1438 9.00989 15.9841 9.00989 18.2543Z" fill="#FA003F"/>
<path d="M0.728232 27.8076C0.728232 25.5437 2.5822 23.7085 4.86919 23.7085C7.15619 23.7085 9.01016 25.5437 9.01016 27.8076V37.8277C9.01016 40.0916 7.15619 41.9269 4.86919 41.9269C2.5822 41.9269 0.728232 40.0916 0.728232 37.8277V27.8076Z" fill="#FA003F"/>
<path d="M19.1322 5.03464C19.1322 7.55007 17.0722 9.58923 14.5311 9.58923C11.99 9.58923 9.93007 7.55007 9.93007 5.03464C9.93007 2.5192 11.99 0.480042 14.5311 0.480042C17.0722 0.480042 19.1322 2.5192 19.1322 5.03464Z" fill="#01684B"/>
<path d="M10.3896 14.5992C10.3896 12.3353 12.2436 10.5001 14.5306 10.5001C16.8176 10.5001 18.6716 12.3353 18.6716 14.5992V37.8276C18.6716 40.0915 16.8176 41.9268 14.5306 41.9268C12.2436 41.9268 10.3896 40.0915 10.3896 37.8276C10.3896 35.5638 10.3896 14.5992 10.3896 14.5992Z" fill="#01684B"/>
<path d="M29.2541 18.4707C29.2541 20.8603 27.2971 22.7975 24.8831 22.7975C22.469 22.7975 20.5121 20.8603 20.5121 18.4707C20.5121 16.081 22.469 14.1438 24.8831 14.1438C27.2971 14.1438 29.2541 16.081 29.2541 18.4707Z" fill="#275DAD"/>
<path d="M20.9726 27.8076C20.9726 25.5437 22.8266 23.7085 25.1136 23.7085C27.4006 23.7085 29.2545 25.5437 29.2545 27.8076V37.8277C29.2545 40.0916 27.4006 41.9269 25.1136 41.9269C22.8266 41.9269 20.9726 40.0916 20.9726 37.8277V27.8076Z" fill="#275DAD"/>
<path d="M29.254 49.2934C25.1645 46.9545 20.0972 45.5706 14.6098 45.5706C9.85203 45.5706 5.41009 46.611 1.64743 48.4122C5.16332 45.5144 9.83075 43.7487 14.9522 43.7487C20.5741 43.7487 25.6489 45.8763 29.254 49.2934Z" fill="#3E443F"/>
</svg>
