<svg width="25" height="24" viewBox="0 0 25 24" fill="none" xmlns="http://www.w3.org/2000/svg">
<path opacity="0.4" d="M13.39 5.87988H5.60999C3.89999 5.87988 2.5 7.27987 2.5 8.98987V20.3499C2.5 21.7999 3.54 22.4199 4.81 21.7099L8.73999 19.5199C9.15999 19.2899 9.84 19.2899 10.25 19.5199L14.18 21.7099C15.45 22.4199 16.49 21.7999 16.49 20.3499V8.98987C16.5 7.27987 15.1 5.87988 13.39 5.87988Z" fill="#292D32"/>
<path d="M22.5 5.10999V16.47C22.5 17.92 21.46 18.53 20.19 17.83L16.5 15.77V8.98999C16.5 7.27999 15.1 5.88 13.39 5.88H8.5V5.10999C8.5 3.39999 9.89999 2 11.61 2H19.39C21.1 2 22.5 3.39999 22.5 5.10999Z" fill="#292D32"/>
</svg>
