<svg width="44" height="45" viewBox="0 0 44 45" fill="none" xmlns="http://www.w3.org/2000/svg">
<path d="M0 22.0103C0 9.85999 9.84974 0.0102539 22 0.0102539C34.1503 0.0102539 44 9.85999 44 22.0103C44 34.1605 34.1503 44.0103 22 44.0103C9.84974 44.0103 0 34.1605 0 22.0103Z" fill="#015E44"/>
<path d="M22.001 19.0103C20.3436 19.0103 19.001 20.3534 19.001 22.0103C19.001 23.6676 20.3441 25.0103 22.001 25.0103C23.6583 25.0103 25.001 23.6672 25.001 22.0103C25.001 20.353 23.6579 19.0103 22.001 19.0103ZM22.001 17.0103C24.7614 17.0103 27.001 19.2474 27.001 22.0103C27.001 24.7708 24.7639 27.0103 22.001 27.0103C19.2405 27.0103 17.001 24.7732 17.001 22.0103C17.001 19.2498 19.2381 17.0103 22.001 17.0103ZM28.501 16.7594C28.501 17.4495 27.9402 18.0094 27.251 18.0094C26.5609 18.0094 26.001 17.4487 26.001 16.7594C26.001 16.0702 26.5617 15.5103 27.251 15.5103C27.9393 15.5094 28.501 16.0702 28.501 16.7594ZM22.001 14.0103C19.5265 14.0103 19.1232 14.0168 17.9723 14.0681C17.1881 14.1049 16.6625 14.2103 16.1742 14.3999C15.7402 14.5682 15.4271 14.7692 15.0935 15.1028C14.7587 15.4377 14.558 15.7499 14.3904 16.1841C14.2004 16.6736 14.0949 17.1984 14.0588 17.9814C14.007 19.0855 14.001 19.4713 14.001 22.0103C14.001 24.4848 14.0075 24.8881 14.0588 26.0389C14.0956 26.8227 14.2012 27.3491 14.3903 27.8363C14.5591 28.2709 14.7605 28.5847 15.0925 28.9167C15.4286 29.2524 15.7418 29.4537 16.1719 29.6197C16.6662 29.8108 17.1915 29.9164 17.9721 29.9525C19.0762 30.0042 19.462 30.0103 22.001 30.0103C24.4755 30.0103 24.8788 30.0037 26.0296 29.9525C26.8117 29.9158 27.3385 29.8099 27.827 29.6209C28.2604 29.4526 28.5752 29.2505 28.9074 28.9188C29.2436 28.5821 29.4445 28.2697 29.6107 27.8386C29.8013 27.3461 29.9071 26.8201 29.9432 26.0392C29.9949 24.9351 30.001 24.5492 30.001 22.0103C30.001 19.5358 29.9944 19.1325 29.9432 17.9816C29.9064 17.1993 29.8005 16.6717 29.6113 16.1834C29.4434 15.7506 29.2417 15.4366 28.9084 15.1028C28.573 14.7674 28.2616 14.5672 27.8271 14.3997C27.338 14.2098 26.8124 14.1042 26.0298 14.0681C24.9258 14.0163 24.5399 14.0103 22.001 14.0103ZM22.001 12.0103C24.7176 12.0103 25.0568 12.0203 26.1235 12.0703C27.1876 12.1194 27.9135 12.2878 28.551 12.5353C29.2101 12.7894 29.7668 13.1328 30.3226 13.6886C30.8776 14.2444 31.221 14.8028 31.476 15.4603C31.7226 16.0969 31.891 16.8236 31.941 17.8878C31.9885 18.9544 32.001 19.2936 32.001 22.0103C32.001 24.727 31.991 25.0661 31.941 26.1328C31.8918 27.197 31.7226 27.9228 31.476 28.5603C31.2218 29.2195 30.8776 29.7761 30.3226 30.332C29.7668 30.887 29.2076 31.2303 28.551 31.4853C27.9135 31.732 27.1876 31.9003 26.1235 31.9503C25.0568 31.9978 24.7176 32.0103 22.001 32.0103C19.2843 32.0103 18.9451 32.0003 17.8785 31.9503C16.8143 31.9011 16.0893 31.732 15.451 31.4853C14.7926 31.2311 14.2351 30.887 13.6793 30.332C13.1235 29.7761 12.781 29.217 12.526 28.5603C12.2785 27.9228 12.111 27.197 12.061 26.1328C12.0135 25.0661 12.001 24.727 12.001 22.0103C12.001 19.2936 12.011 18.9544 12.061 17.8878C12.1101 16.8228 12.2785 16.0978 12.526 15.4603C12.7801 14.8019 13.1235 14.2444 13.6793 13.6886C14.2351 13.1328 14.7935 12.7903 15.451 12.5353C16.0885 12.2878 16.8135 12.1203 17.8785 12.0703C18.9451 12.0228 19.2843 12.0103 22.001 12.0103Z" fill="white"/>
</svg>
