<svg width="14" height="14" viewBox="0 0 14 14" fill="none" xmlns="http://www.w3.org/2000/svg">
<path d="M6.15861 0.809958C6.55219 0.197195 7.44781 0.197195 7.84139 0.809958L9.51676 3.41833C9.65218 3.62917 9.86181 3.78148 10.1042 3.84512L13.1026 4.63245C13.807 4.81742 14.0838 5.6692 13.6226 6.23287L11.6596 8.63227C11.5009 8.82622 11.4209 9.07266 11.4352 9.32282L11.613 12.4178C11.6548 13.1449 10.9302 13.6713 10.2516 13.4069L7.36304 12.2815C7.12956 12.1905 6.87044 12.1905 6.63696 12.2815L3.74839 13.4069C3.06981 13.6713 2.34523 13.1449 2.38699 12.4178L2.56476 9.32282C2.57912 9.07266 2.49905 8.82622 2.34038 8.63227L0.377388 6.23287C-0.0837613 5.6692 0.193001 4.81742 0.897396 4.63245L3.89582 3.84512C4.13819 3.78148 4.34782 3.62917 4.48324 3.41833L6.15861 0.809958Z" fill="#47586E" fill-opacity="0.3"/>
</svg>
