<svg width="24" height="25" viewBox="0 0 24 25" fill="none" xmlns="http://www.w3.org/2000/svg">
<path opacity="0.4" d="M17.53 8.27C17.46 8.26 17.39 8.26 17.32 8.27C15.77 8.22 14.54 6.95 14.54 5.39C14.54 3.8 15.83 2.5 17.43 2.5C19.02 2.5 20.32 3.79 20.32 5.39C20.31 6.95 19.08 8.22 17.53 8.27Z" fill="#01684B"/>
<path opacity="0.4" d="M20.7896 15.2C19.6696 15.95 18.0996 16.23 16.6496 16.04C17.0296 15.22 17.2296 14.31 17.2396 13.35C17.2396 12.35 17.0196 11.4 16.5996 10.57C18.0796 10.37 19.6496 10.65 20.7796 11.4C22.3596 12.44 22.3596 14.15 20.7896 15.2Z" fill="#01684B"/>
<path opacity="0.4" d="M6.44039 8.27C6.51039 8.26 6.58039 8.26 6.65039 8.27C8.20039 8.22 9.43039 6.95 9.43039 5.39C9.43039 3.8 8.14039 2.5 6.54039 2.5C4.95039 2.5 3.65039 3.79 3.65039 5.39C3.66039 6.95 4.89039 8.22 6.44039 8.27Z" fill="#01684B"/>
<path opacity="0.4" d="M6.55012 13.35C6.55012 14.32 6.76012 15.24 7.14012 16.07C5.73012 16.22 4.26012 15.92 3.18012 15.21C1.60012 14.16 1.60012 12.45 3.18012 11.4C4.25012 10.68 5.76012 10.39 7.18012 10.55C6.77012 11.39 6.55012 12.34 6.55012 13.35Z" fill="#01684B"/>
<path d="M12.1198 16.37C12.0398 16.36 11.9498 16.36 11.8598 16.37C10.0198 16.31 8.5498 14.8 8.5498 12.94C8.5498 11.04 10.0798 9.5 11.9898 9.5C13.8898 9.5 15.4298 11.04 15.4298 12.94C15.4298 14.8 13.9698 16.31 12.1198 16.37Z" fill="#01684B"/>
<path d="M8.8698 18.44C7.3598 19.45 7.3598 21.11 8.8698 22.11C10.5898 23.26 13.4098 23.26 15.1298 22.11C16.6398 21.1 16.6398 19.44 15.1298 18.44C13.4198 17.29 10.5998 17.29 8.8698 18.44Z" fill="#01684B"/>
</svg>
