<svg width="24" height="25" viewBox="0 0 24 25" fill="none" xmlns="http://www.w3.org/2000/svg">
<path opacity="0.4" d="M18.3801 13.34V18.27C18.3801 19.54 17.3901 20.9 16.2001 21.3L13.0101 22.36C12.4501 22.55 11.5401 22.55 10.9901 22.36L7.80012 21.3C6.60012 20.9 5.62012 19.54 5.62012 18.27L5.63012 13.34L10.0501 16.22C11.1301 16.93 12.9101 16.93 13.9901 16.22L18.3801 13.34Z" fill="#099250"/>
<path d="M19.9795 6.96L13.9895 3.03C12.9095 2.32 11.1295 2.32 10.0495 3.03L4.02953 6.96C2.09953 8.21 2.09953 11.04 4.02953 12.3L5.62953 13.34L10.0495 16.22C11.1295 16.93 12.9095 16.93 13.9895 16.22L18.3795 13.34L19.7495 12.44V15.5C19.7495 15.91 20.0895 16.25 20.4995 16.25C20.9095 16.25 21.2495 15.91 21.2495 15.5V10.58C21.6495 9.29 21.2395 7.79 19.9795 6.96Z" fill="#099250"/>
</svg>
