<svg width="32" height="32" viewBox="0 0 32 32" fill="none" xmlns="http://www.w3.org/2000/svg">
<path opacity="0.4" d="M28 9.33332V22.6667C28 26.6667 26 29.3333 21.3333 29.3333H10.6667C6 29.3333 4 26.6667 4 22.6667V9.33332C4 5.33332 6 2.66666 10.6667 2.66666H21.3333C26 2.66666 28 5.33332 28 9.33332Z" fill="#A3ADBB"/>
<path d="M20.6667 2.66666V13.1466C20.6667 13.7333 19.9733 14.0267 19.5466 13.64L16.4534 10.7867C16.2 10.5467 15.8 10.5467 15.5466 10.7867L12.4534 13.64C12.0267 14.04 11.3333 13.7333 11.3333 13.1466V2.66666H20.6667Z" fill="#A3ADBB"/>
<path d="M23.3333 19.6667H17.6667C17.12 19.6667 16.6667 19.2133 16.6667 18.6667C16.6667 18.12 17.12 17.6667 17.6667 17.6667H23.3333C23.88 17.6667 24.3333 18.12 24.3333 18.6667C24.3333 19.2133 23.88 19.6667 23.3333 19.6667Z" fill="#292D32"/>
<path d="M23.3333 25H12C11.4533 25 11 24.5467 11 24C11 23.4533 11.4533 23 12 23H23.3333C23.88 23 24.3333 23.4533 24.3333 24C24.3333 24.5467 23.88 25 23.3333 25Z" fill="#292D32"/>
</svg>
