<svg width="64" height="64" viewBox="0 0 64 64" fill="none" xmlns="http://www.w3.org/2000/svg">
<path opacity="0.4" d="M43.1735 5.33337H20.8268C11.1202 5.33337 5.3335 11.12 5.3335 20.8267V43.1467C5.3335 52.88 11.1202 58.6667 20.8268 58.6667H43.1468C52.8535 58.6667 58.6402 52.88 58.6402 43.1734V20.8267C58.6668 11.12 52.8802 5.33337 43.1735 5.33337Z" fill="#04773B"/>
<path d="M42.6668 30H34.0002V21.3334C34.0002 20.24 33.0935 19.3334 32.0002 19.3334C30.9068 19.3334 30.0002 20.24 30.0002 21.3334V30H21.3335C20.2402 30 19.3335 30.9067 19.3335 32C19.3335 33.0934 20.2402 34 21.3335 34H30.0002V42.6667C30.0002 43.76 30.9068 44.6667 32.0002 44.6667C33.0935 44.6667 34.0002 43.76 34.0002 42.6667V34H42.6668C43.7602 34 44.6668 33.0934 44.6668 32C44.6668 30.9067 43.7602 30 42.6668 30Z" fill="#04773B"/>
</svg>
