<svg width="292" height="330" viewBox="0 0 292 330" fill="none" xmlns="http://www.w3.org/2000/svg">
<rect x="2.79091" y="73.9746" width="204.869" height="270.936" rx="6.5" transform="rotate(-20.4517 2.79091 73.9746)" fill="white" fill-opacity="0.2"/>
<rect x="2.79091" y="73.9746" width="204.869" height="270.936" rx="6.5" transform="rotate(-20.4517 2.79091 73.9746)" stroke="white" stroke-width="3"/>
<path opacity="0.4" d="M153.295 184.507C164.076 180.487 169.557 168.489 165.537 157.708C161.518 146.927 149.519 141.446 138.738 145.466C127.957 149.485 122.476 161.484 126.496 172.265C130.516 183.046 142.514 188.527 153.295 184.507Z" fill="white"/>
<path d="M153.28 160.611L146.936 162.976L144.57 156.632C144.272 155.832 143.361 155.415 142.56 155.714C141.76 156.012 141.344 156.923 141.642 157.724L144.008 164.068L137.664 166.433C136.863 166.732 136.447 167.643 136.745 168.443C137.044 169.244 137.955 169.66 138.755 169.362L145.099 166.996L147.465 173.34C147.763 174.141 148.675 174.557 149.475 174.258C150.275 173.96 150.691 173.049 150.393 172.248L148.028 165.904L154.372 163.539C155.172 163.24 155.588 162.329 155.29 161.529C154.991 160.729 154.08 160.312 153.28 160.611Z" fill="white"/>
</svg>
