<svg width="26" height="27" viewBox="0 0 26 27" fill="none" xmlns="http://www.w3.org/2000/svg">
<rect x="0.5" y="0.510254" width="25" height="25" rx="12.5" stroke="#E5EFFF"/>
<g clip-path="url(#clip0_180_4090)">
<path d="M14.0579 13.0103L17.2829 9.79277C17.4242 9.65154 17.5035 9.46 17.5035 9.26027C17.5035 9.06054 17.4242 8.869 17.2829 8.72777C17.1417 8.58654 16.9502 8.5072 16.7504 8.5072C16.5507 8.5072 16.3592 8.58654 16.2179 8.72777L13.0004 11.9528L9.78294 8.72777C9.64171 8.58654 9.45017 8.5072 9.25044 8.5072C9.05072 8.5072 8.85917 8.58654 8.71794 8.72777C8.57671 8.869 8.49737 9.06054 8.49737 9.26027C8.49737 9.46 8.57671 9.65154 8.71794 9.79277L11.9429 13.0103L8.71794 16.2278C8.64765 16.2975 8.59185 16.3804 8.55377 16.4718C8.5157 16.5632 8.49609 16.6613 8.49609 16.7603C8.49609 16.8593 8.5157 16.9573 8.55377 17.0487C8.59185 17.1401 8.64765 17.223 8.71794 17.2928C8.78766 17.3631 8.87062 17.4189 8.96201 17.4569C9.0534 17.495 9.15143 17.5146 9.25044 17.5146C9.34945 17.5146 9.44748 17.495 9.53888 17.4569C9.63027 17.4189 9.71322 17.3631 9.78294 17.2928L13.0004 14.0678L16.2179 17.2928C16.2877 17.3631 16.3706 17.4189 16.462 17.4569C16.5534 17.495 16.6514 17.5146 16.7504 17.5146C16.8495 17.5146 16.9475 17.495 17.0389 17.4569C17.1303 17.4189 17.2132 17.3631 17.2829 17.2928C17.3532 17.223 17.409 17.1401 17.4471 17.0487C17.4852 16.9573 17.5048 16.8593 17.5048 16.7603C17.5048 16.6613 17.4852 16.5632 17.4471 16.4718C17.409 16.3804 17.3532 16.2975 17.2829 16.2278L14.0579 13.0103Z" fill="#CCCCCC"/>
</g>
<defs>
<clipPath id="clip0_180_4090">
<rect width="18" height="18" fill="white" transform="translate(4 4.01025)"/>
</clipPath>
</defs>
</svg>
