<svg width="27" height="27" viewBox="0 0 27 27" fill="none" xmlns="http://www.w3.org/2000/svg">
<rect x="1" y="0.510254" width="25" height="25" rx="12.5" fill="#F7FAFF"/>
<rect x="1" y="0.510254" width="25" height="25" rx="12.5" stroke="#E5EFFF"/>
<path d="M11.8948 17.508C11.792 17.5077 11.6903 17.4862 11.5961 17.4449C11.5019 17.4036 11.4172 17.3434 11.3473 17.268L7.70232 13.3905C7.56607 13.2453 7.49307 13.0519 7.4994 12.8529C7.50573 12.6539 7.59086 12.4655 7.73607 12.3292C7.88128 12.193 8.07466 12.12 8.27369 12.1263C8.47271 12.1327 8.66107 12.2178 8.79732 12.363L11.8873 15.6555L18.1948 8.75549C18.2588 8.67578 18.3385 8.61 18.4288 8.56219C18.5192 8.51437 18.6184 8.48554 18.7203 8.47745C18.8222 8.46936 18.9247 8.48219 19.0214 8.51515C19.1182 8.54811 19.2072 8.60051 19.283 8.66912C19.3588 8.73774 19.4197 8.82112 19.4621 8.91415C19.5045 9.00717 19.5274 9.10789 19.5295 9.21009C19.5315 9.3123 19.5126 9.41385 19.474 9.5085C19.4354 9.60315 19.3778 9.6889 19.3048 9.76049L12.4498 17.2605C12.3806 17.3373 12.2962 17.3989 12.2019 17.4415C12.1077 17.4841 12.0057 17.5067 11.9023 17.508H11.8948Z" fill="url(#paint0_linear_180_4174)"/>
<defs>
<linearGradient id="paint0_linear_180_4174" x1="7.49902" y1="12.9915" x2="19.5296" y2="12.9915" gradientUnits="userSpaceOnUse">
<stop stop-color="#015E44"/>
<stop offset="1" stop-color="#02B885"/>
</linearGradient>
</defs>
</svg>
