<svg width="44" height="45" viewBox="0 0 44 45" fill="none" xmlns="http://www.w3.org/2000/svg">
<path d="M0 22.0103C0 9.85999 9.84974 0.0102539 22 0.0102539C34.1503 0.0102539 44 9.85999 44 22.0103C44 34.1605 34.1503 44.0103 22 44.0103C9.84974 44.0103 0 34.1605 0 22.0103Z" fill="#015E44"/>
<path d="M24 23.5103H26.5L27.5 19.5103H24V17.5103C24 16.4809 24 15.5103 26 15.5103H27.5V12.1504C27.1743 12.1071 25.943 12.0103 24.6429 12.0103C21.9284 12.0103 20 13.6671 20 16.71V19.5103H17V23.5103H20V32.0103H24V23.5103Z" fill="white"/>
</svg>
