<svg width="44" height="45" viewBox="0 0 44 45" fill="none" xmlns="http://www.w3.org/2000/svg">
<path d="M0 22.0103C0 9.85999 9.84974 0.0102539 22 0.0102539C34.1503 0.0102539 44 9.85999 44 22.0103C44 34.1605 34.1503 44.0103 22 44.0103C9.84974 44.0103 0 34.1605 0 22.0103Z" fill="#015E44"/>
<path d="M17.2536 28.5047L17.9783 28.9273C19.1891 29.6333 20.5651 30.0103 22.001 30.0103C26.4193 30.0103 30.001 26.4286 30.001 22.0103C30.001 17.592 26.4193 14.0103 22.001 14.0103C17.5827 14.0103 14.001 17.592 14.001 22.0103C14.001 23.4466 14.3782 24.8231 15.0847 26.0341L15.507 26.7581L14.8535 29.1597L17.2536 28.5047ZM12.0052 32.0103L13.3571 27.0418C12.4949 25.5639 12.001 23.8448 12.001 22.0103C12.001 16.4874 16.4781 12.0103 22.001 12.0103C27.5238 12.0103 32.001 16.4874 32.001 22.0103C32.001 27.5331 27.5238 32.0103 22.001 32.0103C20.1671 32.0103 18.4485 31.5167 16.9709 30.655L12.0052 32.0103ZM18.3923 17.3186C18.5262 17.3092 18.6605 17.3077 18.7946 17.3143C18.8487 17.3178 18.9026 17.3241 18.9566 17.3303C19.1158 17.3487 19.291 17.4457 19.3499 17.5792C19.6482 18.2556 19.9376 18.9359 20.2182 19.6199C20.2801 19.7709 20.2428 19.9666 20.125 20.156C20.0652 20.2531 19.9713 20.3893 19.8625 20.5286C19.7494 20.6733 19.506 20.9394 19.506 20.9394C19.506 20.9394 19.4074 21.0576 19.4445 21.2047C19.459 21.2603 19.5052 21.3413 19.5471 21.4094C19.5703 21.4471 19.5918 21.4808 19.6058 21.5041C19.8617 21.9314 20.2057 22.3646 20.6259 22.7719C20.7463 22.8886 20.8631 23.0077 20.9887 23.1183C21.457 23.5312 21.9868 23.8686 22.559 24.1185L22.5641 24.1208C22.6486 24.1572 22.692 24.1771 22.8157 24.2296C22.8781 24.256 22.9419 24.2788 23.0074 24.2961C23.0311 24.3023 23.0554 24.3058 23.0798 24.3075C23.2415 24.3172 23.335 24.2135 23.3749 24.1658C24.0984 23.2893 24.1646 23.2321 24.1696 23.2325V23.2341C24.2647 23.1339 24.4142 23.0991 24.5476 23.1073C24.6085 23.111 24.6691 23.1227 24.7245 23.148C25.2563 23.3906 26.1258 23.769 26.1258 23.769L26.7073 24.0304C26.8047 24.0774 26.8936 24.1881 26.8979 24.2957C26.9005 24.3626 26.9077 24.4706 26.8838 24.6682C26.8525 24.9269 26.7738 25.2384 26.6956 25.4016C26.6406 25.5161 26.5694 25.6177 26.4866 25.7037C26.3743 25.8203 26.2909 25.8911 26.1559 25.9917C26.0737 26.0529 26.0311 26.0817 26.0311 26.0817C25.8922 26.1693 25.8139 26.2131 25.6484 26.3012C25.391 26.4383 25.1066 26.5171 24.8153 26.5321C24.6296 26.5416 24.4444 26.555 24.2589 26.545C24.2507 26.5445 23.6907 26.4585 23.6907 26.4585C22.2688 26.0845 20.9538 25.3839 19.8503 24.4123C19.6247 24.2137 19.4155 23.9988 19.2019 23.7862C18.3129 22.9011 17.6398 21.9467 17.2317 21.0439C17.0304 20.5987 16.903 20.1219 16.901 19.6312C16.8973 19.0243 17.096 18.4335 17.4657 17.9521C17.5386 17.8572 17.6077 17.7588 17.7271 17.6461C17.8535 17.5268 17.9339 17.4627 18.0206 17.4184C18.1361 17.3593 18.2629 17.3277 18.3923 17.3186Z" fill="white"/>
</svg>
