<svg width="17" height="16" viewBox="0 0 17 16" fill="none" xmlns="http://www.w3.org/2000/svg">
<path d="M7.65861 1.30996C8.05219 0.697195 8.94781 0.697195 9.34139 1.30996L11.0168 3.91833C11.1522 4.12917 11.3618 4.28148 11.6042 4.34512L14.6026 5.13245C15.307 5.31742 15.5838 6.1692 15.1226 6.73287L13.1596 9.13227C13.0009 9.32622 12.9209 9.57266 12.9352 9.82282L13.113 12.9178C13.1548 13.6449 12.4302 14.1713 11.7516 13.9069L8.86304 12.7815C8.62956 12.6905 8.37044 12.6905 8.13696 12.7815L5.24839 13.9069C4.56981 14.1713 3.84523 13.6449 3.88699 12.9178L4.06476 9.82282C4.07912 9.57266 3.99905 9.32622 3.84038 9.13227L1.87739 6.73287C1.41624 6.1692 1.693 5.31742 2.3974 5.13245L5.39582 4.34512C5.63819 4.28148 5.84782 4.12917 5.98324 3.91833L7.65861 1.30996Z" fill="#FFD700"/>
</svg>
