<svg width="32" height="32" viewBox="0 0 32 32" fill="none" xmlns="http://www.w3.org/2000/svg">
<path d="M16.0933 11.9334C16.04 11.9334 15.96 11.9334 15.8933 11.9334C14.4933 11.8801 13.3867 10.7467 13.3867 9.3334C13.3867 7.8934 14.5467 6.7334 15.9867 6.7334C17.4267 6.7334 18.5867 7.90673 18.5867 9.3334C18.6 10.7467 17.4933 11.8934 16.0933 11.9334Z" fill="#A3ADBB"/>
<path d="M12.3333 15.9468C10.56 17.1334 10.56 19.0668 12.3333 20.2534C14.3467 21.6001 17.6533 21.6001 19.6667 20.2534C21.44 19.0668 21.44 17.1334 19.6667 15.9468C17.6533 14.6134 14.36 14.6134 12.3333 15.9468Z" fill="#B2BBC6"/>
<path opacity="0.4" d="M24 2.66675H8C5.78667 2.66675 4 4.44008 4 6.62675V21.1734C4 23.3601 5.78667 25.1334 8 25.1334H9.01334C10.08 25.1334 11.0933 25.5467 11.84 26.2934L14.12 28.5467C15.16 29.5734 16.8533 29.5734 17.8933 28.5467L20.1733 26.2934C20.92 25.5467 21.9467 25.1334 23 25.1334H24C26.2133 25.1334 28 23.3601 28 21.1734V6.62675C28 4.44008 26.2133 2.66675 24 2.66675ZM16 6.73342C17.44 6.73342 18.6 7.90675 18.6 9.33342C18.6 10.7467 17.48 11.8801 16.0933 11.9334C16.04 11.9334 15.96 11.9334 15.8933 11.9334C14.4933 11.8801 13.3867 10.7467 13.3867 9.33342C13.4 7.90675 14.56 6.73342 16 6.73342ZM19.6667 20.2534C17.6533 21.6001 14.3467 21.6001 12.3333 20.2534C10.56 19.0801 10.56 17.1334 12.3333 15.9467C14.36 14.6001 17.6667 14.6001 19.6667 15.9467C21.44 17.1334 21.44 19.0667 19.6667 20.2534Z" fill="#B2BBC6"/>
</svg>
