<svg width="32" height="32" viewBox="0 0 32 32" fill="none" xmlns="http://www.w3.org/2000/svg">
<path opacity="0.4" d="M29.3333 10.4134V21.5868C29.3333 25.3334 27.6133 27.9067 24.5867 28.88C23.7067 29.1867 22.6933 29.3334 21.5867 29.3334H10.4133C9.30665 29.3334 8.29332 29.1867 7.41332 28.88C4.38665 27.9067 2.66666 25.3334 2.66666 21.5868V10.4134C2.66666 5.56008 5.55999 2.66675 10.4133 2.66675H21.5867C26.44 2.66675 29.3333 5.56008 29.3333 10.4134Z" fill="#A3ADBB"/>
<path d="M24.5867 28.88C23.7067 29.1867 22.6933 29.3334 21.5867 29.3334H10.4133C9.30666 29.3334 8.29333 29.1867 7.41333 28.88C7.88 25.36 11.56 22.6267 16 22.6267C20.44 22.6267 24.12 25.36 24.5867 28.88Z" fill="#A3ADBB"/>
<path d="M20.7733 15.4401C20.7733 18.0801 18.64 20.2267 16 20.2267C13.36 20.2267 11.2267 18.0801 11.2267 15.4401C11.2267 12.8001 13.36 10.6667 16 10.6667C18.64 10.6667 20.7733 12.8001 20.7733 15.4401Z" fill="#A3ADBB"/>
</svg>
