<svg width="90" height="98" viewBox="0 0 90 98" fill="none" xmlns="http://www.w3.org/2000/svg">
<path d="M41.0392 8.54292C45.7694 15.4579 43.9983 24.8981 37.0834 29.6284C30.1685 34.3586 20.7282 32.5876 15.9979 25.6726C11.2677 18.7577 13.0388 9.31738 19.9537 4.58715C26.8686 -0.143085 36.3089 1.62797 41.0392 8.54292Z" fill="#D9E8E4"/>
<path d="M35.6122 53.61C31.0116 46.8845 32.7341 37.7028 39.4596 33.1021C46.1852 28.5015 55.3668 30.224 59.9675 36.9495L83.3966 71.1997C87.9973 77.9252 86.2748 87.1069 79.5492 91.7075C72.8237 96.3082 63.642 94.5856 59.0414 87.8601L35.6122 53.61Z" fill="#D9E8E4"/>
<path d="M27.0948 51.0868C31.6396 57.7308 29.938 66.8012 23.294 71.346C16.65 75.8909 7.5797 74.1893 3.03482 67.5453C-1.51005 60.9013 0.191605 51.831 6.83558 47.2861C13.4795 42.7412 22.5499 44.4429 27.0948 51.0868Z" fill="#D9E8E4"/>
<path d="M21.7009 95.3824C17.1076 88.6677 18.8274 79.5007 25.5421 74.9074C32.2569 70.3141 41.4238 72.0339 46.0171 78.7487L69.473 113.038C74.0662 119.753 72.3465 128.92 65.6317 133.513C58.917 138.106 49.75 136.386 45.1568 129.672L21.7009 95.3824Z" fill="#D9E8E4"/>
<path d="M81.0038 7.05143C85.6228 13.8037 83.8934 23.022 77.1411 27.6409C70.3888 32.2599 61.1705 30.5305 56.5516 23.7782C51.9326 17.0259 53.662 7.80768 60.4143 3.18871C67.1666 -1.43027 76.3848 0.299131 81.0038 7.05143Z" fill="#D9E8E4"/>
<path d="M75.7441 51.5431C71.1508 44.8284 72.8706 35.6614 79.5854 31.0682C86.3001 26.4749 95.467 28.1947 100.06 34.9094L123.516 69.1986C128.109 75.9133 126.39 85.0803 119.675 89.6736C112.96 94.2668 103.793 92.5471 99.2 85.8323L75.7441 51.5431Z" fill="#D9E8E4"/>
</svg>
